<svg width="25" height="25" viewBox="0 0 25 25" fill="none" xmlns="http://www.w3.org/2000/svg">
<path d="M19.45 8V17C19.45 17.1989 19.3709 17.3897 19.2303 17.5303C19.0896 17.671 18.8989 17.75 18.7 17.75H14.95C14.751 17.75 14.5603 17.671 14.4196 17.5303C14.279 17.3897 14.2 17.1989 14.2 17V8C14.2 7.80109 14.279 7.61032 14.4196 7.46967C14.5603 7.32902 14.751 7.25 14.95 7.25H18.7C18.8989 7.25 19.0896 7.32902 19.2303 7.46967C19.3709 7.61032 19.45 7.80109 19.45 8ZM10.45 3.5H6.69995C6.50104 3.5 6.31027 3.57902 6.16962 3.71967C6.02897 3.86032 5.94995 4.05109 5.94995 4.25V17C5.94995 17.1989 6.02897 17.3897 6.16962 17.5303C6.31027 17.671 6.50104 17.75 6.69995 17.75H10.45C10.6489 17.75 10.8396 17.671 10.9803 17.5303C11.1209 17.3897 11.2 17.1989 11.2 17V4.25C11.2 4.05109 11.1209 3.86032 10.9803 3.71967C10.8396 3.57902 10.6489 3.5 10.45 3.5Z" fill="#99CAFF"/>
<path d="M6.69995 18.5H10.45C10.8478 18.5 11.2293 18.342 11.5106 18.0607C11.7919 17.7794 11.95 17.3978 11.95 17V4.25C11.95 3.85218 11.7919 3.47064 11.5106 3.18934C11.2293 2.90804 10.8478 2.75 10.45 2.75H6.69995C6.30213 2.75 5.9206 2.90804 5.63929 3.18934C5.35799 3.47064 5.19995 3.85218 5.19995 4.25V17C5.19995 17.3978 5.35799 17.7794 5.63929 18.0607C5.9206 18.342 6.30213 18.5 6.69995 18.5ZM6.69995 4.25H10.45V17H6.69995V4.25ZM21.7 20.75C21.7 20.9489 21.6209 21.1397 21.4803 21.2803C21.3396 21.421 21.1489 21.5 20.95 21.5H4.44995C4.25104 21.5 4.06027 21.421 3.91962 21.2803C3.77897 21.1397 3.69995 20.9489 3.69995 20.75C3.69995 20.5511 3.77897 20.3603 3.91962 20.2197C4.06027 20.079 4.25104 20 4.44995 20H20.95C21.1489 20 21.3396 20.079 21.4803 20.2197C21.6209 20.3603 21.7 20.5511 21.7 20.75ZM14.95 18.5H18.7C19.0978 18.5 19.4793 18.342 19.7606 18.0607C20.0419 17.7794 20.2 17.3978 20.2 17V8C20.2 7.60218 20.0419 7.22064 19.7606 6.93934C19.4793 6.65804 19.0978 6.5 18.7 6.5H14.95C14.5521 6.5 14.1706 6.65804 13.8893 6.93934C13.608 7.22064 13.45 7.60218 13.45 8V17C13.45 17.3978 13.608 17.7794 13.8893 18.0607C14.1706 18.342 14.5521 18.5 14.95 18.5ZM14.95 8H18.7V17H14.95V8Z" fill="#1C1C1C"/>
</svg>
