<svg width="25" height="25" viewBox="0 0 25 25" fill="none" xmlns="http://www.w3.org/2000/svg">
<path d="M21.5 5.75V20H3.5V5H20.75C20.9489 5 21.1397 5.07902 21.2803 5.21967C21.421 5.36032 21.5 5.55109 21.5 5.75Z" fill="#99CAFF"/>
<path d="M22.25 20C22.25 20.1989 22.171 20.3897 22.0303 20.5303C21.8897 20.671 21.6989 20.75 21.5 20.75H3.5C3.30109 20.75 3.11032 20.671 2.96967 20.5303C2.82902 20.3897 2.75 20.1989 2.75 20V5C2.75 4.80109 2.82902 4.61032 2.96967 4.46967C3.11032 4.32902 3.30109 4.25 3.5 4.25C3.69891 4.25 3.88968 4.32902 4.03033 4.46967C4.17098 4.61032 4.25 4.80109 4.25 5V19.25H21.5C21.6989 19.25 21.8897 19.329 22.0303 19.4697C22.171 19.6103 22.25 19.8011 22.25 20ZM12.875 15.5C13.0975 15.5 13.315 15.434 13.5 15.3104C13.685 15.1868 13.8292 15.0111 13.9144 14.8055C13.9995 14.6 14.0218 14.3738 13.9784 14.1555C13.935 13.9373 13.8278 13.7368 13.6705 13.5795C13.5132 13.4222 13.3127 13.315 13.0945 13.2716C12.8762 13.2282 12.65 13.2505 12.4445 13.3356C12.2389 13.4208 12.0632 13.565 11.9396 13.75C11.816 13.935 11.75 14.1525 11.75 14.375C11.75 14.6734 11.8685 14.9595 12.0795 15.1705C12.2905 15.3815 12.5766 15.5 12.875 15.5ZM10.625 10.25C10.8475 10.25 11.065 10.184 11.25 10.0604C11.435 9.93679 11.5792 9.76109 11.6644 9.55552C11.7495 9.34995 11.7718 9.12375 11.7284 8.90552C11.685 8.68729 11.5778 8.48684 11.4205 8.3295C11.2632 8.17217 11.0627 8.06502 10.8445 8.02162C10.6262 7.97821 10.4 8.00049 10.1945 8.08564C9.98891 8.17078 9.81321 8.31498 9.6896 8.49998C9.56598 8.68499 9.5 8.9025 9.5 9.125C9.5 9.42337 9.61853 9.70952 9.8295 9.9205C10.0405 10.1315 10.3266 10.25 10.625 10.25ZM7.625 17C7.8475 17 8.06501 16.934 8.25002 16.8104C8.43502 16.6868 8.57922 16.5111 8.66436 16.3055C8.74951 16.1 8.77179 15.8738 8.72838 15.6555C8.68498 15.4373 8.57783 15.2368 8.4205 15.0795C8.26316 14.9222 8.06271 14.815 7.84448 14.7716C7.62625 14.7282 7.40005 14.7505 7.19448 14.8356C6.98891 14.9208 6.81321 15.065 6.6896 15.25C6.56598 15.435 6.5 15.6525 6.5 15.875C6.5 16.1734 6.61853 16.4595 6.8295 16.6705C7.04048 16.8815 7.32663 17 7.625 17ZM16.625 12.5C16.8475 12.5 17.065 12.434 17.25 12.3104C17.435 12.1868 17.5792 12.0111 17.6644 11.8055C17.7495 11.6 17.7718 11.3738 17.7284 11.1555C17.685 10.9373 17.5778 10.7368 17.4205 10.5795C17.2632 10.4222 17.0627 10.315 16.8445 10.2716C16.6262 10.2282 16.4 10.2505 16.1945 10.3356C15.9889 10.4208 15.8132 10.565 15.6896 10.75C15.566 10.935 15.5 11.1525 15.5 11.375C15.5 11.6734 15.6185 11.9595 15.8295 12.1705C16.0405 12.3815 16.3266 12.5 16.625 12.5ZM18.875 8.75C19.0975 8.75 19.315 8.68402 19.5 8.5604C19.685 8.43679 19.8292 8.26109 19.9144 8.05552C19.9995 7.84995 20.0218 7.62375 19.9784 7.40552C19.935 7.18729 19.8278 6.98684 19.6705 6.8295C19.5132 6.67217 19.3127 6.56502 19.0945 6.52162C18.8762 6.47821 18.65 6.50049 18.4445 6.58564C18.2389 6.67078 18.0632 6.81498 17.9396 6.99998C17.816 7.18499 17.75 7.4025 17.75 7.625C17.75 7.92337 17.8685 8.20952 18.0795 8.4205C18.2905 8.63147 18.5766 8.75 18.875 8.75ZM17 15.875C17 16.0975 17.066 16.315 17.1896 16.5C17.3132 16.685 17.4889 16.8292 17.6945 16.9144C17.9 16.9995 18.1262 17.0218 18.3445 16.9784C18.5627 16.935 18.7632 16.8278 18.9205 16.6705C19.0778 16.5132 19.185 16.3127 19.2284 16.0945C19.2718 15.8762 19.2495 15.65 19.1644 15.4445C19.0792 15.2389 18.935 15.0632 18.75 14.9396C18.565 14.816 18.3475 14.75 18.125 14.75C17.8266 14.75 17.5405 14.8685 17.3295 15.0795C17.1185 15.2905 17 15.5766 17 15.875Z" fill="#1C1C1C"/>
</svg>
