<svg width="25" height="25" viewBox="0 0 25 25" fill="none" xmlns="http://www.w3.org/2000/svg">
<path d="M19.7998 14C19.7998 14.9849 19.6058 15.9602 19.2289 16.8701C18.852 17.7801 18.2995 18.6069 17.6031 19.3033C16.9067 19.9997 16.0799 20.5522 15.1699 20.9291C14.26 21.306 13.2847 21.5 12.2998 21.5V2C12.2998 2 19.7998 7.25 19.7998 14Z" fill="#99CAFF"/>
<path d="M16.6123 4.97657C15.4543 3.63916 14.1509 2.43487 12.7264 1.38594C12.6003 1.2976 12.45 1.25021 12.2961 1.25021C12.1421 1.25021 11.9918 1.2976 11.8657 1.38594C10.4438 2.4353 9.14298 3.63958 7.9873 4.97657C5.41012 7.93625 4.0498 11.0563 4.0498 14C4.0498 16.188 4.919 18.2865 6.46617 19.8336C8.01335 21.3808 10.1118 22.25 12.2998 22.25C14.4878 22.25 16.5863 21.3808 18.1334 19.8336C19.6806 18.2865 20.5498 16.188 20.5498 14C20.5498 11.0563 19.1895 7.93625 16.6123 4.97657ZM5.5498 14C5.5498 9.3125 9.51168 5.30844 11.5498 3.55625V20.7069C9.90061 20.5208 8.37756 19.7344 7.271 18.4975C6.16444 17.2605 5.55178 15.6597 5.5498 14ZM13.0498 20.7069V3.55625C15.0879 5.30844 19.0498 9.3125 19.0498 14C19.0478 15.6597 18.4352 17.2605 17.3286 18.4975C16.2221 19.7344 14.699 20.5208 13.0498 20.7069Z" fill="#1C1C1C"/>
</svg>
