<svg width="32" height="32" viewBox="0 0 32 32" fill="none" xmlns="http://www.w3.org/2000/svg">
<g clip-path="url(#clip0_234_10422)">
<path fill-rule="evenodd" clip-rule="evenodd" d="M1.74663 6.84593C0.991868 6.62808 0.439209 5.93167 0.439209 5.1072C0.439209 4.10861 1.24994 3.29782 2.24859 3.29782C3.24718 3.29782 4.05791 4.10861 4.05791 5.1072C4.05791 5.93167 3.50525 6.62808 2.75055 6.84593V10.0867L7.32461 10.1111V9.40731C7.32461 8.3611 8.17399 7.51166 9.2202 7.51166H10.3549L10.3306 2.99439H7.78465C7.56686 3.74915 6.87046 4.30174 6.04599 4.30174C5.04733 4.30174 4.23661 3.49101 4.23661 2.49242C4.23661 1.49377 5.04733 0.683044 6.04599 0.683044C6.87046 0.683044 7.56686 1.2357 7.78465 1.99046H10.8299C10.9625 1.99046 11.0898 2.04298 11.1839 2.13653C11.2779 2.23008 11.3311 2.35707 11.3318 2.48973L11.3588 7.51166H13.9294V2.49242C13.9294 2.21534 14.1543 1.99046 14.4314 1.99046C14.7084 1.99046 14.9333 2.21534 14.9333 2.49242V7.51166H17.0667V2.49242C17.0667 2.21534 17.2916 1.99046 17.5686 1.99046C17.8456 1.99046 18.0706 2.21534 18.0706 2.49242V7.51166H20.6412L20.6682 2.48973C20.6689 2.35707 20.7221 2.23008 20.8161 2.13653C20.9102 2.04298 21.0375 1.99046 21.1701 1.99046H24.2153C24.4331 1.2357 25.1295 0.683044 25.954 0.683044C26.9527 0.683044 27.7634 1.49377 27.7634 2.49242C27.7634 3.49101 26.9527 4.30174 25.954 4.30174C25.1295 4.30174 24.4331 3.74915 24.2153 2.99439H21.6694L21.6451 7.51166H22.7798C23.826 7.51166 24.6754 8.3611 24.6754 9.40731V10.1111L29.2494 10.0867V6.84593C28.4947 6.62808 27.9421 5.93167 27.9421 5.1072C27.9421 4.10861 28.7528 3.29782 29.7514 3.29782C30.75 3.29782 31.5608 4.10861 31.5608 5.1072C31.5608 5.93167 31.0081 6.62808 30.2534 6.84593V10.586C30.2534 10.7186 30.2009 10.8459 30.1073 10.94C30.0138 11.034 29.8868 11.0872 29.7541 11.0879L24.6754 11.115V13.6856H29.7514C30.0285 13.6856 30.2534 13.9105 30.2534 14.1875C30.2534 14.4646 30.0285 14.6895 29.7514 14.6895H24.6754V16.8228H29.7514C30.0285 16.8228 30.2534 17.0477 30.2534 17.3248C30.2534 17.6018 30.0285 17.8268 29.7514 17.8268H24.6754V20.3973L29.7541 20.4243C29.8868 20.4251 30.0137 20.4783 30.1073 20.5723C30.2008 20.6664 30.2534 20.7936 30.2534 20.9263V24.6664C31.0081 24.8842 31.5608 25.5806 31.5608 26.4051C31.5608 27.4037 30.75 28.2145 29.7514 28.2145C28.7528 28.2145 27.9421 27.4037 27.9421 26.4051C27.9421 25.5806 28.4947 24.8842 29.2494 24.6664V21.4256L24.6754 21.4012V22.105C24.6754 23.1513 23.826 24.0006 22.7798 24.0006H21.6449L21.6696 29.0056H24.1758C24.3334 28.1672 25.0702 27.5321 25.954 27.5321C26.9527 27.5321 27.7634 28.3428 27.7634 29.3414C27.7634 30.34 26.9527 31.1508 25.954 31.1508C25.1913 31.1508 24.5382 30.6779 24.2722 30.0095H21.1701C21.0374 30.0095 20.9101 29.957 20.8161 29.8634C20.722 29.7698 20.6688 29.6428 20.6682 29.5101L20.6409 24.0006H18.0706V29.5076C18.0706 29.7847 17.8456 30.0095 17.5686 30.0095C17.2916 30.0095 17.0667 29.7847 17.0667 29.5076V24.0006H14.9333V29.5076C14.9333 29.7847 14.7084 30.0095 14.4314 30.0095C14.1543 30.0095 13.9294 29.7847 13.9294 29.5076V24.0006H11.3591L11.3318 29.5101C11.3312 29.6428 11.278 29.7698 11.1839 29.8634C11.0899 29.957 10.9626 30.0095 10.8299 30.0095H7.78465C7.56686 30.7643 6.87046 31.317 6.04599 31.317C5.04733 31.317 4.23661 30.5062 4.23661 29.5076C4.23661 28.509 5.04733 27.6983 6.04599 27.6983C6.87046 27.6983 7.56686 28.2509 7.78465 29.0056H10.3303L10.3551 24.0006H9.2202C8.17399 24.0006 7.32461 23.1513 7.32461 22.105V21.4012L2.75055 21.4256V24.6664C3.50525 24.8842 4.05791 25.5806 4.05791 26.4051C4.05791 27.4037 3.24718 28.2145 2.24859 28.2145C1.24994 28.2145 0.439209 27.4037 0.439209 26.4051C0.439209 25.5806 0.991868 24.8842 1.74663 24.6664V20.9263C1.74663 20.7936 1.79914 20.6664 1.89269 20.5723C1.98625 20.4783 2.11323 20.4251 2.24589 20.4243L7.32461 20.3973V17.8268H2.24859C1.97151 17.8268 1.74663 17.6018 1.74663 17.3248C1.74663 17.0477 1.97151 16.8228 2.24859 16.8228H7.32461V14.6895H2.24859C1.97151 14.6895 1.74663 14.4646 1.74663 14.1875C1.74663 13.9105 1.97151 13.6856 2.24859 13.6856H7.32461V11.115L2.24589 11.0879C2.11323 11.0872 1.98623 11.034 1.89268 10.94C1.79912 10.8459 1.74661 10.7186 1.74663 10.586V6.84593ZM2.24859 4.30174C1.80404 4.30174 1.44313 4.66265 1.44313 5.1072C1.44313 5.55175 1.80404 5.91266 2.24859 5.91266C2.69308 5.91266 3.05399 5.55175 3.05399 5.1072C3.05399 4.66265 2.69308 4.30174 2.24859 4.30174ZM23.6715 9.40731C23.6715 8.91514 23.2719 8.51558 22.7798 8.51558H9.2202C8.72809 8.51558 8.32853 8.91514 8.32853 9.40731V22.105C8.32853 22.5971 8.72809 22.9967 9.2202 22.9967H22.7798C23.2719 22.9967 23.6715 22.5971 23.6715 22.105V9.40731ZM20.9831 11.3682V19.559C20.9831 20.1549 20.4922 20.646 19.8837 20.646H12.1163C11.5079 20.646 11.0168 20.1549 11.0168 19.559V11.3682C11.0168 11.2351 11.0697 11.1074 11.1639 11.0133C11.258 10.9191 11.3857 10.8663 11.5188 10.8663H20.4812C20.6143 10.8663 20.742 10.9191 20.8361 11.0133C20.9303 11.1074 20.9831 11.2351 20.9831 11.3682ZM13.9977 11.8702H12.0208V19.559C12.0208 19.6078 12.0664 19.6421 12.1163 19.6421H19.8837C19.9335 19.6421 19.9792 19.6078 19.9792 19.559V11.8702H18.0024V14.9487C18.0024 15.0818 17.9495 15.2095 17.8554 15.3036C17.7612 15.3978 17.6335 15.4507 17.5004 15.4507H14.4996C14.3665 15.4507 14.2388 15.3978 14.1447 15.3036C14.0506 15.2095 13.9977 15.0818 13.9977 14.9487V11.8702ZM16.9985 11.8702H15.0016V14.4467H16.9985V11.8702ZM25.954 1.68697C25.5095 1.68697 25.1486 2.04788 25.1486 2.49242C25.1486 2.93697 25.5095 3.29782 25.954 3.29782C26.3986 3.29782 26.7595 2.93697 26.7595 2.49242C26.7595 2.04788 26.3986 1.68697 25.954 1.68697ZM6.04599 1.68697C5.60144 1.68697 5.24053 2.04788 5.24053 2.49242C5.24053 2.93697 5.60144 3.29782 6.04599 3.29782C6.49047 3.29782 6.85138 2.93697 6.85138 2.49242C6.85138 2.04788 6.49047 1.68697 6.04599 1.68697ZM29.7514 25.5997C29.3069 25.5997 28.946 25.9606 28.946 26.4051C28.946 26.8496 29.3069 27.2105 29.7514 27.2105C30.1959 27.2105 30.5569 26.8496 30.5569 26.4051C30.5569 25.9606 30.1959 25.5997 29.7514 25.5997ZM2.24859 25.5997C1.80404 25.5997 1.44313 25.9606 1.44313 26.4051C1.44313 26.8496 1.80404 27.2105 2.24859 27.2105C2.69308 27.2105 3.05399 26.8496 3.05399 26.4051C3.05399 25.9606 2.69308 25.5997 2.24859 25.5997ZM6.04599 28.7022C5.60144 28.7022 5.24053 29.063 5.24053 29.5076C5.24053 29.9521 5.60144 30.313 6.04599 30.313C6.49047 30.313 6.85138 29.9521 6.85138 29.5076C6.85138 29.063 6.49047 28.7022 6.04599 28.7022ZM29.7514 4.30174C29.3069 4.30174 28.946 4.66265 28.946 5.1072C28.946 5.55175 29.3069 5.91266 29.7514 5.91266C30.1959 5.91266 30.5569 5.55175 30.5569 5.1072C30.5569 4.66265 30.1959 4.30174 29.7514 4.30174ZM25.954 28.536C25.5095 28.536 25.1486 28.8969 25.1486 29.3414C25.1486 29.786 25.5095 30.1469 25.954 30.1469C26.3986 30.1469 26.7595 29.786 26.7595 29.3414C26.7595 28.8969 26.3986 28.536 25.954 28.536Z" fill="#ED64A6"/>
</g>
<defs>
<clipPath id="clip0_234_10422">
<rect width="32" height="32" fill="white"/>
</clipPath>
</defs>
</svg>
