<svg width="25" height="25" viewBox="0 0 25 25" fill="none" xmlns="http://www.w3.org/2000/svg">
<path d="M20.3868 12.0481L21.9599 10.0794C21.7477 9.28176 21.4303 8.51597 21.0159 7.80219L18.5127 7.52094C18.3128 7.29565 18.0996 7.08246 17.8743 6.8825L17.593 4.37844C16.8785 3.96653 16.1124 3.65128 15.3149 3.44094L13.3462 5.01313C13.0452 4.99532 12.7434 4.99532 12.4424 5.01313L10.4737 3.44C9.67865 3.65281 8.91541 3.97028 8.20399 4.38406L7.92274 6.88719C7.69745 7.08715 7.48426 7.30034 7.2843 7.52563L4.78023 7.80688C4.36833 8.52143 4.05307 9.2875 3.84273 10.085L5.41492 12.0538C5.39711 12.3547 5.39711 12.6565 5.41492 12.9575L3.8418 14.9263C4.05398 15.7239 4.37146 16.4897 4.78586 17.2034L7.28898 17.4847C7.48895 17.71 7.70214 17.9232 7.92742 18.1231L8.20867 20.6272C8.92323 21.0391 9.68929 21.3543 10.4868 21.5647L12.4555 19.9925C12.7565 20.0103 13.0583 20.0103 13.3593 19.9925L15.328 21.5656C16.1257 21.3534 16.8915 21.036 17.6052 20.6216L17.8865 18.1184C18.1118 17.9185 18.325 17.7053 18.5249 17.48L21.029 17.1988C21.4409 16.4842 21.7561 15.7181 21.9665 14.9206L20.3943 12.9519C20.4096 12.6507 20.4071 12.349 20.3868 12.0481ZM12.8999 16.25C12.1582 16.25 11.4332 16.0301 10.8165 15.618C10.1998 15.206 9.7192 14.6203 9.43537 13.9351C9.15155 13.2498 9.07728 12.4958 9.22198 11.7684C9.36667 11.041 9.72382 10.3728 10.2483 9.84835C10.7727 9.3239 11.4409 8.96675 12.1683 8.82206C12.8958 8.67736 13.6498 8.75162 14.335 9.03545C15.0202 9.31928 15.6059 9.79993 16.0179 10.4166C16.43 11.0333 16.6499 11.7583 16.6499 12.5C16.6499 13.4946 16.2548 14.4484 15.5516 15.1517C14.8483 15.8549 13.8945 16.25 12.8999 16.25Z" fill="#99CAFF"/>
<path d="M12.8999 8C12.0099 8 11.1399 8.26392 10.3999 8.75838C9.65986 9.25285 9.08308 9.95565 8.74249 10.7779C8.40189 11.6002 8.31278 12.505 8.48641 13.3779C8.66004 14.2508 9.08863 15.0526 9.71796 15.682C10.3473 16.3113 11.1491 16.7399 12.022 16.9135C12.895 17.0872 13.7998 16.998 14.622 16.6575C15.4443 16.3169 16.1471 15.7401 16.6416 15.0001C17.136 14.26 17.3999 13.39 17.3999 12.5C17.3987 11.3069 16.9242 10.163 16.0806 9.31939C15.2369 8.47574 14.093 8.00124 12.8999 8ZM12.8999 15.5C12.3066 15.5 11.7266 15.324 11.2332 14.9944C10.7399 14.6648 10.3554 14.1962 10.1283 13.648C9.90124 13.0999 9.84183 12.4967 9.95759 11.9147C10.0733 11.3328 10.3591 10.7982 10.7786 10.3787C11.1982 9.95912 11.7327 9.6734 12.3147 9.55764C12.8966 9.44188 13.4998 9.50129 14.048 9.72836C14.5962 9.95542 15.0647 10.3399 15.3944 10.8333C15.724 11.3266 15.8999 11.9067 15.8999 12.5C15.8999 13.2956 15.5839 14.0587 15.0213 14.6213C14.4587 15.1839 13.6956 15.5 12.8999 15.5ZM21.1499 12.7025C21.1537 12.5675 21.1537 12.4325 21.1499 12.2975L22.5487 10.55C22.622 10.4582 22.6728 10.3505 22.6969 10.2356C22.721 10.1206 22.7178 10.0016 22.6874 9.88812C22.4577 9.02632 22.1147 8.1988 21.6674 7.42718C21.6088 7.32623 21.5275 7.24036 21.4298 7.17639C21.3321 7.11243 21.2209 7.07215 21.1049 7.05875L18.8812 6.81125C18.7887 6.71375 18.6949 6.62 18.5999 6.53L18.3374 4.30062C18.3239 4.18457 18.2835 4.07328 18.2194 3.97562C18.1553 3.87796 18.0692 3.79663 17.9681 3.73812C17.1965 3.29117 16.3689 2.94879 15.5071 2.72C15.3936 2.68968 15.2746 2.68644 15.1597 2.71054C15.0447 2.73464 14.937 2.7854 14.8453 2.85875L13.1024 4.25C12.9674 4.25 12.8324 4.25 12.6974 4.25L10.9499 2.85406C10.8582 2.78072 10.7505 2.72995 10.6355 2.70585C10.5206 2.68175 10.4016 2.68499 10.2881 2.71531C9.42627 2.94502 8.59875 3.28801 7.82713 3.73531C7.72618 3.79393 7.64031 3.8753 7.57634 3.97296C7.51238 4.07061 7.47209 4.18184 7.45869 4.29781L7.21119 6.52531C7.1137 6.61843 7.01994 6.71218 6.92994 6.80656L4.70057 7.0625C4.58452 7.076 4.47323 7.11643 4.37557 7.18056C4.27791 7.24469 4.19658 7.33075 4.13807 7.43187C3.69121 8.20359 3.34854 9.0311 3.11901 9.89281C3.08882 10.0064 3.08573 10.1254 3.10999 10.2404C3.13426 10.3554 3.18519 10.463 3.2587 10.5547L4.64994 12.2975C4.64994 12.4325 4.64994 12.5675 4.64994 12.7025L3.25401 14.45C3.18067 14.5417 3.1299 14.6494 3.1058 14.7644C3.0817 14.8794 3.08494 14.9984 3.11526 15.1119C3.34497 15.9737 3.68796 16.8012 4.13526 17.5728C4.19388 17.6738 4.27525 17.7596 4.3729 17.8236C4.47056 17.8876 4.58179 17.9278 4.69776 17.9412L6.92151 18.1887C7.01463 18.2862 7.10838 18.38 7.20276 18.47L7.46244 20.6994C7.47595 20.8154 7.51637 20.9267 7.5805 21.0244C7.64463 21.122 7.73069 21.2034 7.83182 21.2619C8.60354 21.7087 9.43105 22.0514 10.2928 22.2809C10.4063 22.3111 10.5254 22.3142 10.6403 22.2899C10.7553 22.2657 10.863 22.2147 10.9546 22.1412L12.6974 20.75C12.8324 20.7537 12.9674 20.7537 13.1024 20.75L14.8499 22.1487C14.9417 22.2221 15.0494 22.2729 15.1644 22.297C15.2793 22.3211 15.3983 22.3178 15.5118 22.2875C16.3738 22.0582 17.2013 21.7152 17.9728 21.2675C18.0737 21.2089 18.1596 21.1275 18.2235 21.0299C18.2875 20.9322 18.3278 20.821 18.3412 20.705L18.5887 18.4812C18.6862 18.3887 18.7799 18.295 18.8699 18.2L21.0993 17.9375C21.2154 17.924 21.3267 17.8836 21.4243 17.8194C21.522 17.7553 21.6033 17.6692 21.6618 17.5681C22.1087 16.7964 22.4513 15.9689 22.6809 15.1072C22.7111 14.9936 22.7142 14.8746 22.6899 14.7596C22.6656 14.6446 22.6147 14.537 22.5412 14.4453L21.1499 12.7025ZM19.6406 12.0931C19.6565 12.3641 19.6565 12.6359 19.6406 12.9069C19.6294 13.0924 19.6875 13.2755 19.8037 13.4206L21.134 15.0828C20.9814 15.5679 20.7859 16.0385 20.5499 16.4891L18.4312 16.7291C18.2467 16.7495 18.0763 16.8377 17.9531 16.9766C17.7726 17.1795 17.5804 17.3717 17.3774 17.5522C17.2386 17.6754 17.1504 17.8458 17.1299 18.0303L16.8946 20.1472C16.4442 20.3833 15.9735 20.5787 15.4884 20.7312L13.8253 19.4009C13.6922 19.2946 13.5269 19.2367 13.3565 19.2369H13.3115C13.0405 19.2528 12.7688 19.2528 12.4978 19.2369C12.3123 19.2262 12.1294 19.2843 11.984 19.4L10.3171 20.7312C9.83201 20.5786 9.36141 20.3831 8.91088 20.1472L8.67088 18.0312C8.6504 17.8467 8.56221 17.6764 8.42338 17.5531C8.22042 17.3727 8.02822 17.1805 7.84776 16.9775C7.72451 16.8387 7.55415 16.7505 7.36963 16.73L5.25276 16.4937C5.01669 16.0433 4.82123 15.5727 4.66869 15.0875L5.99901 13.4244C6.11517 13.2793 6.1733 13.0962 6.16213 12.9106C6.1462 12.6396 6.1462 12.3679 6.16213 12.0969C6.1733 11.9113 6.11517 11.7282 5.99901 11.5831L4.66869 9.91718C4.82134 9.43206 5.0168 8.96146 5.25276 8.51093L7.36869 8.27093C7.55321 8.25045 7.72357 8.16227 7.84682 8.02343C8.02728 7.82047 8.21948 7.62827 8.42244 7.44781C8.56183 7.32448 8.65038 7.15373 8.67088 6.96875L8.9062 4.85281C9.35667 4.61674 9.82728 4.42128 10.3124 4.26875L11.9756 5.59906C12.1207 5.71522 12.3038 5.77335 12.4893 5.76218C12.7603 5.74625 13.0321 5.74625 13.3031 5.76218C13.4886 5.77282 13.6714 5.71474 13.8168 5.59906L15.4828 4.26875C15.9679 4.4214 16.4385 4.61685 16.889 4.85281L17.129 6.96875C17.1495 7.15326 17.2377 7.32362 17.3765 7.44687C17.5795 7.62733 17.7717 7.81954 17.9521 8.0225C18.0754 8.16133 18.2457 8.24952 18.4303 8.27L20.5471 8.50531C20.7832 8.95578 20.9787 9.42639 21.1312 9.91156L19.8009 11.5747C19.6836 11.721 19.6254 11.906 19.6378 12.0931H19.6406Z" fill="#1C1C1C"/>
</svg>
