<svg width="25" height="24" viewBox="0 0 25 24" fill="none" xmlns="http://www.w3.org/2000/svg">
<path d="M20.9599 8.37L14.0299 2.83C12.9599 1.97 11.2299 1.97 10.1699 2.82L3.23987 8.37C2.45987 8.99 1.95987 10.3 2.12987 11.28L3.45987 19.24C3.69987 20.66 5.05987 21.81 6.49987 21.81H17.6999C19.1299 21.81 20.4999 20.65 20.7399 19.24L22.0699 11.28C22.2299 10.3 21.7299 8.99 20.9599 8.37ZM12.0999 15.5C10.7199 15.5 9.59987 14.38 9.59987 13C9.59987 11.62 10.7199 10.5 12.0999 10.5C13.4799 10.5 14.5999 11.62 14.5999 13C14.5999 14.38 13.4799 15.5 12.0999 15.5Z" fill="#007BFF"/>
</svg>
