<svg width="27" height="27" viewBox="0 0 27 27" fill="none" xmlns="http://www.w3.org/2000/svg">
<path fill-rule="evenodd" clip-rule="evenodd" d="M15.9727 4.11328H25.3604C25.8146 4.11328 26.2223 4.29785 26.517 4.59229C26.8139 4.88672 27 5.29541 27 5.73926V25.374C27 25.8245 26.8139 26.2288 26.517 26.521C26.2201 26.8154 25.808 27 25.3604 27H5.42393C4.96972 27 4.56204 26.8154 4.26736 26.521C3.97046 26.2266 3.78434 25.8179 3.78434 25.374V15.7017C4.33161 15.9214 4.90325 16.0928 5.49483 16.2048V20.6609H5.50148C8.35746 17.9517 10.2496 16.6135 13.0901 14.3262C13.1012 14.3372 13.1123 14.3481 13.1233 14.3591C13.13 14.3657 13.13 14.3723 13.1366 14.3723L19.079 21.3442L19.9874 15.7983C20.0495 15.4424 20.3863 15.1985 20.7452 15.26C20.8826 15.2798 21.0066 15.3479 21.1041 15.438L25.274 19.782V6.13257C25.274 6.04468 25.2386 5.96777 25.1765 5.91504C25.1211 5.86011 25.0391 5.81836 24.9572 5.81836H16.4069C16.3161 5.22949 16.1699 4.6604 15.9727 4.11328ZM7.26514 0C11.2777 0 14.5303 3.22559 14.5303 7.20483C14.5303 11.1841 11.2777 14.4097 7.26514 14.4097C3.25258 14.4097 0 11.1841 0 7.20483C0 3.22559 3.25258 0 7.26514 0ZM3.40547 7.33228H5.85155V10.7952H8.61004V7.33228H11.127L7.26736 3.6123L3.40547 7.33228ZM20.887 7.83545C21.5406 7.83545 22.1411 8.10132 22.5665 8.52539C23.0007 8.95605 23.2622 9.54272 23.2622 10.1931C23.2622 10.8413 22.9941 11.4368 22.5665 11.8586C22.1322 12.2893 21.5406 12.5486 20.887 12.5486C20.2334 12.5486 19.6329 12.2827 19.2053 11.8586C18.771 11.428 18.5096 10.8413 18.5096 10.1931C18.5096 9.54492 18.7777 8.95166 19.2053 8.52539C19.6418 8.09473 20.2334 7.83545 20.887 7.83545Z" fill="#BDBDBD"/>
</svg>
