<svg width="10" height="12" viewBox="0 0 10 12" fill="none" xmlns="http://www.w3.org/2000/svg">
<path fill-rule="evenodd" clip-rule="evenodd" d="M5.38102 1.89258C6.34924 1.99357 7.23331 2.37697 7.94719 2.95674L8.43981 2.44804C8.54003 2.34424 8.70834 2.34237 8.81329 2.44243L9.14423 2.76036C9.24824 2.86042 9.25013 3.02594 9.1499 3.1288L8.64404 3.65059C9.3201 4.4763 9.72573 5.5283 9.72573 6.67287C9.72573 9.32859 7.54817 11.4822 4.86286 11.4822C2.17756 11.4831 0 9.32953 0 6.67381C0 5.475 0.444399 4.37811 1.17813 3.53557L0.608922 3.0063C0.503022 2.90811 0.500186 2.74166 0.600412 2.63786L0.919056 2.30777C1.01928 2.20397 1.18664 2.20117 1.29159 2.29935L1.89768 2.86323C2.63614 2.30029 3.54196 1.94308 4.52909 1.87762V0.834033H3.59302C3.46821 0.834033 3.36609 0.733041 3.36609 0.609606V0.216859C3.36609 0.0934238 3.46821 -0.00756836 3.59302 -0.00756836H6.31615C6.44096 -0.00756836 6.54307 0.0934238 6.54307 0.216859V0.609606C6.54307 0.733041 6.44096 0.834033 6.31615 0.834033H5.38007V1.89258H5.38102ZM4.46669 4.91393H4.88177C4.95742 4.91393 5.01982 4.97565 5.01982 5.05045V6.76639H6.29723C6.37288 6.76639 6.43528 6.8281 6.43528 6.90291V7.31343C6.43528 7.38824 6.37288 7.44995 6.29723 7.44995H4.32864V7.2489V6.76639V5.05045C4.32864 4.97471 4.39104 4.91393 4.46669 4.91393ZM4.86286 2.76878C7.04326 2.76878 8.8114 4.51744 8.8114 6.67381C8.8114 8.83018 7.04326 10.5788 4.86286 10.5788C2.68247 10.5788 0.914328 8.83018 0.914328 6.67381C0.914328 4.51744 2.68247 2.76878 4.86286 2.76878Z" fill="black"/>
</svg>
