<svg width="37" height="37" viewBox="0 0 37 37" fill="none" xmlns="http://www.w3.org/2000/svg">
<path d="M18.5 0C8.288 0 0 8.288 0 18.5C0 28.712 8.288 37 18.5 37C28.712 37 37 28.712 37 18.5C37 8.288 28.712 0 18.5 0ZM13.4865 26.4365L6.845 19.795C6.1235 19.0735 6.1235 17.908 6.845 17.1865C7.5665 16.465 8.732 16.465 9.4535 17.1865L14.8 22.5145L27.528 9.7865C28.2495 9.065 29.415 9.065 30.1365 9.7865C30.858 10.508 30.858 11.6735 30.1365 12.395L16.095 26.4365C15.392 27.158 14.208 27.158 13.4865 26.4365Z" fill="#05CD99"/>
</svg>
