<svg width="19" height="16" viewBox="0 0 19 16" fill="none" xmlns="http://www.w3.org/2000/svg">
<path d="M19 14.75C19 15.164 18.6726 15.5 18.2692 15.5L5.60256 15.5C5.19918 15.5 4.87179 15.164 4.87179 14.75C4.87179 14.336 5.19918 14 5.60256 14L18.2692 14C18.6726 14 19 14.336 19 14.75ZM0.73077 8.5L18.2692 8.5C18.6726 8.5 19 8.164 19 7.75C19 7.336 18.6726 7 18.2692 7L0.73077 7C0.327385 7 0 7.336 0 7.75C0 8.164 0.327385 8.5 0.73077 8.5ZM9.5 1.5L18.2692 1.5C18.6726 1.5 19 1.164 19 0.75C19 0.336 18.6726 0 18.2692 0L9.5 0C9.09662 0 8.76923 0.336 8.76923 0.75C8.76923 1.164 9.09662 1.5 9.5 1.5Z" fill="#41416E"/>
</svg>
