<svg width="20" height="18" viewBox="0 0 20 18" fill="none" xmlns="http://www.w3.org/2000/svg">
<path d="M18.9811 6.86477C18.4051 5.90477 17.4451 4.60077 16.1091 3.45077L18.2791 1.28079C18.5721 0.987785 18.5721 0.51275 18.2791 0.21975C17.9861 -0.07325 17.5111 -0.07325 17.2181 0.21975L11.6851 5.75277L11.6831 5.75375L11.6821 5.75478L1.21714 16.2197C0.924136 16.5127 0.924136 16.9878 1.21714 17.2808C1.36314 17.4268 1.55513 17.5008 1.74713 17.5008C1.93913 17.5008 2.13113 17.4278 2.27713 17.2808L4.58713 14.9707C6.17113 15.9827 7.90412 16.5008 9.74912 16.5008C14.6961 16.5008 17.6551 12.8278 18.9801 10.6358C19.6781 9.47277 19.6781 8.02877 18.9811 6.86477ZM12.4991 8.75076C12.4991 10.2678 11.2651 11.5008 9.74912 11.5008C9.27112 11.5008 8.82013 11.3687 8.41813 11.1427L12.1401 7.42074C12.3671 7.82174 12.4991 8.27276 12.4991 8.75076ZM17.6971 9.86276C16.5371 11.7818 13.9621 15.0008 9.75113 15.0008C8.31013 15.0008 6.95314 14.6057 5.69214 13.8677L7.32712 12.2328C8.03012 12.7278 8.86514 13.0008 9.74814 13.0008C12.0911 13.0008 13.9981 11.0938 13.9981 8.75076C13.9981 7.86776 13.7251 7.03274 13.2301 6.32974L15.0471 4.51278C16.2791 5.55078 17.1661 6.75477 17.6951 7.63577C18.1061 8.32377 18.1061 9.17776 17.6971 9.86276ZM1.88013 12.5337C1.38213 11.9437 0.925129 11.3058 0.522129 10.6378C-0.173871 9.47178 -0.173878 8.02775 0.521122 6.86575C1.84612 4.67375 4.80514 1.00076 9.75214 1.00076C10.7081 1.00076 11.6321 1.13875 12.5771 1.42275C12.9731 1.54175 13.1991 1.95977 13.0791 2.35677C12.9601 2.75377 12.5421 2.97873 12.1451 2.85873C11.3421 2.61773 10.5591 2.50076 9.75113 2.50076C5.54113 2.50076 2.96512 5.71976 1.80512 7.63876C1.39612 8.32376 1.39613 9.17775 1.80713 9.86575C2.16813 10.4637 2.57813 11.0368 3.02613 11.5668C3.29313 11.8828 3.25314 12.3568 2.93714 12.6238C2.79614 12.7428 2.62514 12.8008 2.45414 12.8008C2.24014 12.8008 2.02813 12.7097 1.88013 12.5337ZM9.94013 5.18575C10.0031 5.59475 9.72314 5.97773 9.31314 6.04073C8.15314 6.21973 7.21913 7.15474 7.04013 8.31374C6.98313 8.68474 6.66414 8.94973 6.30014 8.94973C6.26214 8.94973 6.22312 8.94676 6.18512 8.94076C5.77512 8.87776 5.49514 8.49478 5.55814 8.08578C5.84014 6.25778 7.25815 4.84074 9.08515 4.55874C9.48815 4.49674 9.87613 4.77675 9.94013 5.18575Z" fill="#41416E"/>
</svg>
