<svg width="23" height="23" viewBox="0 0 23 23" fill="none" xmlns="http://www.w3.org/2000/svg">
<path d="M19.76 17.5967V18.0967H20.26H21.6079H22.1079V17.5967V16.2477V15.7477H21.6079H20.26H19.76V16.2477V17.5967ZM22.1079 18.9578V18.4578H21.6079H20.26H19.76V18.9578V20.3067V20.8067H20.26H21.6079H22.1079V20.3067V18.9578ZM19.76 14.8866V15.3866H20.26H21.6079H22.1079V14.8866V13.5377V13.0377H21.6079H20.26H19.76V13.5377V14.8866ZM19.4099 22.5042V11.3281H22.4932V22.5042H19.4099Z" stroke="black"/>
<path d="M3.23324 16.2477V15.7477H2.73324H1.38533H0.885332V16.2477V17.5967V18.0967H1.38533H2.73324H3.23324V17.5967V16.2477ZM0.885332 14.8866V15.3866H1.38533H2.73324H3.23324V14.8866V13.5377V13.0377H2.73324H1.38533H0.885332V13.5377V14.8866ZM3.23324 18.9578V18.4578H2.73324H1.38533H0.885332V18.9578V20.3067V20.8067H1.38533H2.73324H3.23324V20.3067V18.9578ZM0.5 22.5042V11.3281H3.58321V22.5042H0.5Z" stroke="black"/>
<path d="M13.0253 17.5967V18.0967H13.5253H14.8732H15.3732V17.5967V16.2478V15.7478H14.8732H13.5253H13.0253V16.2478V17.5967ZM15.3732 18.9578V18.4578H14.8732H13.5253H13.0253V18.9578V20.3068V20.8068H13.5253H14.8732H15.3732V20.3068V18.9578ZM13.0253 14.8867V15.3867H13.5253H14.8732H15.3732V14.8867V13.5377V13.0377H14.8732H13.5253H13.0253V13.5377V14.8867ZM13.0253 12.1766V12.6766H13.5253H14.8732H15.3732V12.1766V10.8277V10.3277H14.8732H13.5253H13.0253V10.8277V12.1766ZM13.0253 9.46654V9.96654H13.5253H14.8732H15.3732V9.46654V8.11761V7.61761H14.8732H13.5253H13.0253V8.11761V9.46654ZM13.0253 6.7565V7.2565H13.5253H14.8732H15.3732V6.7565V5.40756V4.90756H14.8732H13.5253H13.0253V5.40756V6.7565ZM7.62938 17.5967V18.0967H8.12938H9.47729H9.97729V17.5967V16.2478V15.7478H9.47729H8.12938H7.62938V16.2478V17.5967ZM9.97729 18.9578V18.4578H9.47729H8.12938H7.62938V18.9578V20.3068V20.8068H8.12938H9.47729H9.97729V20.3068V18.9578ZM7.62938 14.8867V15.3867H8.12938H9.47729H9.97729V14.8867V13.5377V13.0377H9.47729H8.12938H7.62938V13.5377V14.8867ZM7.62938 12.1766V12.6766H8.12938H9.47729H9.97729V12.1766V10.8277V10.3277H9.47729H8.12938H7.62938V10.8277V12.1766ZM7.62938 9.46654V9.96654H8.12938H9.47729H9.97729V9.46654V8.11761V7.61761H9.47729H8.12938H7.62938V8.11761V9.46654ZM7.62938 6.7565V7.2565H8.12938H9.47729H9.97729V6.7565V5.40756V4.90756H9.47729H8.12938H7.62938V5.40756V6.7565ZM10.8273 18.4578H10.3273V18.9578V20.3068V20.8068H10.8273H12.1752H12.6752V20.3068V18.9578V18.4578H12.1752H10.8273ZM10.3273 17.5967V18.0967H10.8273H12.1752H12.6752V17.5967V16.2478V15.7478H12.1752H10.8273H10.3273V16.2478V17.5967ZM10.3273 14.8867V15.3867H10.8273H12.1752H12.6752V14.8867V13.5377V13.0377H12.1752H10.8273H10.3273V13.5377V14.8867ZM10.3273 12.1766V12.6766H10.8273H12.1752H12.6752V12.1766V10.8277V10.3277H12.1752H10.8273H10.3273V10.8277V12.1766ZM10.3273 9.46654V9.96654H10.8273H12.1752H12.6752V9.46654V8.11761V7.61761H12.1752H10.8273H10.3273V8.11761V9.46654ZM10.3273 6.7565V7.2565H10.8273H12.1752H12.6752V6.7565V5.40756V4.90756H12.1752H10.8273H10.3273V5.40756V6.7565ZM17.0722 22.5042H5.93033L5.93141 4.17637L11.5013 0.594466L17.0711 4.17637L17.0722 22.5042Z" stroke="black"/>
</svg>
