<svg width="42" height="43" viewBox="0 0 42 43" fill="none" xmlns="http://www.w3.org/2000/svg">
<path d="M41.9868 19.7805H34.5293V42.0186H41.9868V19.7805ZM36.995 32.1424V29.6788H39.4568V32.1424H36.995ZM39.4568 34.6283V37.092H36.995V34.6283H39.4568ZM36.995 27.1929V24.7292H39.4568V27.1929H36.995Z" fill="#A2ACCC"/>
<path d="M7.45747 19.7805H0V42.0186H7.45747V19.7805ZM4.99192 29.6788V32.1424H2.53014V29.6788H4.99192ZM2.53014 27.1929V24.7292H4.99192V27.1929H2.53014ZM4.99192 34.6283V37.092H2.53014V34.6283H4.99192Z" fill="#A2ACCC"/>
<path d="M32.0905 7.12914L21.0046 0L9.91886 7.12914L9.91681 42.0144H32.0925L32.0905 7.12914ZM24.7012 32.1382V29.6746H27.163V32.1382H24.7012ZM27.163 34.6241V37.0878H24.7012V34.6241H27.163ZM24.7012 27.1887V24.725H27.163V27.1887H24.7012ZM24.7012 22.2391V19.7754H27.163V22.2391H24.7012ZM24.7012 17.2895V14.8258H27.163V17.2895H24.7012ZM24.7012 12.3399V9.87623H27.163V12.3399H24.7012ZM14.8464 32.1382V29.6746H17.3081V32.1382H14.8464ZM17.3081 34.6241V37.0878H14.8464V34.6241H17.3081ZM14.8464 27.1887V24.725H17.3081V27.1887H14.8464ZM14.8464 22.2391V19.7754H17.3081V22.2391H14.8464ZM14.8464 17.2895V14.8258H17.3081V17.2895H14.8464ZM14.8464 12.3399V9.87623H17.3081V12.3399H14.8464ZM19.7738 34.6241H22.2355V37.0878H19.7738V34.6241ZM19.7738 32.1382V29.6746H22.2355V32.1382H19.7738ZM19.7738 27.1887V24.725H22.2355V27.1887H19.7738ZM19.7738 22.2391V19.7754H22.2355V22.2391H19.7738ZM19.7738 17.2895V14.8258H22.2355V17.2895H19.7738ZM19.7738 12.3399V9.87623H22.2355V12.3399H19.7738Z" fill="#A2ACCC"/>
</svg>
