<svg width="14" height="18" viewBox="0 0 14 18" fill="none" xmlns="http://www.w3.org/2000/svg">
<path d="M13.1687 9.1364C11.8332 5.70211 7.07778 5.51692 8.22622 0.525407C8.31129 0.155041 7.91146 -0.13115 7.58819 0.0624501C4.50017 1.86377 2.27986 5.47484 4.14288 10.2054C4.29601 10.5926 3.83663 10.9546 3.50486 10.702C1.9651 9.54886 1.80347 7.89063 1.93958 6.70378C1.99063 6.26607 1.41215 6.05564 1.16545 6.41758C0.586979 7.29299 0 8.70712 0 10.8367C0.323264 15.5505 4.34705 16.9983 5.79323 17.1834C7.86042 17.4444 10.0977 17.0656 11.7056 15.6094C13.475 13.9848 14.1215 11.3923 13.1687 9.1364ZM5.27431 13.3704C6.49931 13.0757 7.12882 12.2003 7.29896 11.4259C7.57969 10.2222 6.48229 9.04381 7.2224 7.14148C7.50313 8.71553 10.0042 9.70037 10.0042 11.4175C10.0722 13.5471 7.74132 15.3737 5.27431 13.3704Z" fill="#EE5D50"/>
</svg>
