<svg width="22" height="21" viewBox="0 0 22 21" fill="none" xmlns="http://www.w3.org/2000/svg">
<mask id="path-1-inside-1_406_8250" fill="white">
<path d="M11.9365 20.1271C8.67655 20.1271 5.60437 18.5367 3.71824 15.873C3.14795 15.0676 2.70061 14.1861 2.38919 13.2533L3.75955 12.7957C4.02599 13.5938 4.40904 14.3484 4.89719 15.0382C6.51297 17.3204 9.14466 18.6824 11.9365 18.6824C16.6892 18.6824 20.5556 14.816 20.5556 10.0633C20.5556 5.3108 16.6892 1.44442 11.9365 1.44442C7.18397 1.44442 3.31735 5.31104 3.31735 10.0635H1.87268C1.87268 4.5144 6.38708 0 11.9362 0C17.4856 0 22 4.5144 22 10.0635C22 15.6127 17.4856 20.1271 11.9365 20.1271Z"/>
</mask>
<path d="M3.71824 15.873L1.42489 17.4968L1.42494 17.4968L3.71824 15.873ZM2.38919 13.2533L1.49916 10.588L-1.16599 11.4779L-0.276189 14.1431L2.38919 13.2533ZM3.75955 12.7957L6.42494 11.9059L5.53505 9.24027L2.86952 10.1304L3.75955 12.7957ZM4.89719 15.0382L2.60343 16.6614L2.60381 16.662L4.89719 15.0382ZM3.31735 10.0635V12.8735H6.12735V10.0635H3.31735ZM1.87268 10.0635H-0.937319V12.8735H1.87268V10.0635ZM11.9365 17.3171C9.58952 17.3171 7.37169 16.17 6.01153 14.2491L1.42494 17.4968C3.83705 20.9034 7.76357 22.9371 11.9365 22.9371V17.3171ZM6.01158 14.2492C5.59985 13.6677 5.27824 13.0334 5.05457 12.3634L-0.276189 14.1431C0.122993 15.3388 0.69604 16.4674 1.42489 17.4968L6.01158 14.2492ZM3.27922 15.9186L4.64957 15.461L2.86952 10.1304L1.49916 10.588L3.27922 15.9186ZM1.09416 13.6855C1.44846 14.7468 1.95722 15.7482 2.60343 16.6614L7.19095 13.415C6.86085 12.9485 6.60352 12.4408 6.42494 11.9059L1.09416 13.6855ZM2.60381 16.662C4.7456 19.687 8.2317 21.4924 11.9365 21.4924V15.8724C10.0576 15.8724 8.28034 14.9537 7.19057 13.4145L2.60381 16.662ZM11.9365 21.4924C18.2411 21.4924 23.3656 16.3679 23.3656 10.0633H17.7456C17.7456 13.2641 15.1373 15.8724 11.9365 15.8724V21.4924ZM23.3656 10.0633C23.3656 3.75883 18.2411 -1.36558 11.9365 -1.36558V4.25442C15.1373 4.25442 17.7456 6.86277 17.7456 10.0633H23.3656ZM11.9365 -1.36558C5.63205 -1.36558 0.507347 3.75912 0.507347 10.0635H6.12735C6.12735 6.86296 8.73589 4.25442 11.9365 4.25442V-1.36558ZM3.31735 7.25353H1.87268V12.8735H3.31735V7.25353ZM4.68268 10.0635C4.68268 6.06632 7.939 2.81 11.9362 2.81V-2.81C4.83516 -2.81 -0.937319 2.96248 -0.937319 10.0635H4.68268ZM11.9362 2.81C15.9337 2.81 19.19 6.06636 19.19 10.0635H24.81C24.81 2.96243 19.0375 -2.81 11.9362 -2.81V2.81ZM19.19 10.0635C19.19 14.0607 15.9337 17.3171 11.9365 17.3171V22.9371C19.0375 22.9371 24.81 17.1646 24.81 10.0635H19.19Z" fill="black" mask="url(#path-1-inside-1_406_8250)"/>
<path d="M15.8082 14.1438L11.2151 10.4087V3.71582H12.6573V9.71937L16.72 13.0218L15.8082 14.1438Z" fill="black"/>
<path d="M5.18955 8.94141L2.596 11.535L0 8.94141H5.18955Z" fill="black"/>
</svg>
