<svg width="17" height="18" viewBox="0 0 17 18" fill="none" xmlns="http://www.w3.org/2000/svg">
<path d="M17.0059 8.01176H13.9854V17.0188H17.0059V8.01176ZM14.984 13.0187V12.0208H15.9811V13.0187H14.984ZM15.9811 14.0256V15.0234H14.984V14.0256H15.9811ZM14.984 11.014V10.0161H15.9811V11.014H14.984Z" fill="#F6F8FF"/>
<path d="M3.02049 8.01176H0V17.0188H3.02049V8.01176ZM2.02187 12.0208V13.0187H1.02478V12.0208H2.02187ZM1.02478 11.014V10.0161H2.02187V11.014H1.02478ZM2.02187 14.0256V15.0234H1.02478V14.0256H2.02187Z" fill="#F6F8FF"/>
<path d="M12.9976 2.8875L8.50749 0L4.01743 2.8875L4.0166 17.017H12.9984L12.9976 2.8875ZM10.0047 13.0169V12.019H11.0018V13.0169H10.0047ZM11.0018 14.0238V15.0216H10.0047V14.0238H11.0018ZM10.0047 11.0122V10.0143H11.0018V11.0122H10.0047ZM10.0047 9.00747V8.00962H11.0018V9.00747H10.0047ZM10.0047 7.00272V6.00487H11.0018V7.00272H10.0047ZM10.0047 4.99801V4.00016H11.0018V4.99801H10.0047ZM6.01321 13.0169V12.019H7.0103V13.0169H6.01321ZM7.0103 14.0238V15.0216H6.01321V14.0238H7.0103ZM6.01321 11.0122V10.0143H7.0103V11.0122H6.01321ZM6.01321 9.00747V8.00962H7.0103V9.00747H6.01321ZM6.01321 7.00272V6.00487H7.0103V7.00272H6.01321ZM6.01321 4.99801V4.00016H7.0103V4.99801H6.01321ZM8.00895 14.0238H9.00604V15.0216H8.00895V14.0238ZM8.00895 13.0169V12.019H9.00604V13.0169H8.00895ZM8.00895 11.0122V10.0143H9.00604V11.0122H8.00895ZM8.00895 9.00747V8.00962H9.00604V9.00747H8.00895ZM8.00895 7.00272V6.00487H9.00604V7.00272H8.00895ZM8.00895 4.99801V4.00016H9.00604V4.99801H8.00895Z" fill="#F6F8FF"/>
</svg>
