<svg width="14" height="17" viewBox="0 0 14 17" fill="none" xmlns="http://www.w3.org/2000/svg">
<path d="M11.9488 1.99222C10.6256 0.709426 8.84828 -0.00595401 6.99947 3.73317e-05C5.06378 3.73317e-05 3.31419 0.762911 2.05011 1.99222C1.40198 2.61655 0.886575 3.36377 0.534424 4.18962C0.182274 5.01546 0.000543253 5.90313 0 6.80002C0 8.78689 1.94317 11.4474 3.20831 12.75L6.99947 17L10.6944 12.75C11.9595 11.4463 14 8.78689 14 6.80002C13.999 5.9031 13.817 5.01547 13.4647 4.18967C13.1123 3.36386 12.5969 2.61665 11.9488 1.99222ZM6.99947 9.27246C6.69278 9.27302 6.38899 9.2134 6.10555 9.09702C5.82212 8.98064 5.5646 8.8098 5.34779 8.59429C5.13097 8.37879 4.95913 8.12287 4.84213 7.84121C4.72512 7.55956 4.66525 7.25772 4.66595 6.95302C4.66595 5.67059 5.70759 4.63572 6.99947 4.63572C8.29135 4.63572 9.33298 5.67059 9.33298 6.95302C9.33368 7.25772 9.27381 7.55956 9.15681 7.84121C9.0398 8.12287 8.86796 8.37879 8.65114 8.59429C8.43433 8.8098 8.17681 8.98064 7.89338 9.09702C7.60994 9.2134 7.30616 9.27302 6.99947 9.27246Z" fill="white"/>
</svg>
