<svg width="54" height="59" viewBox="0 0 54 59" fill="none" xmlns="http://www.w3.org/2000/svg">
<path d="M21.0869 49.0067C20.5422 49.0211 20.0644 48.6177 19.9879 48.0655C19.9067 47.4893 20.2937 46.9563 20.8576 46.8459C20.2364 43.307 18.5401 41.3575 16.7483 39.2976C15.3531 37.6938 13.9053 36.0276 12.7633 33.5739C11.6404 31.1587 11.024 28.6618 11.0431 26.0689C11.067 23.4759 11.7216 20.8062 13.1455 18.0452C13.1551 18.026 13.1646 18.0116 13.1742 17.9924C15.0425 14.8136 17.6562 12.6913 20.5661 11.5005C23.0078 10.4969 25.6597 10.156 28.2591 10.3961C30.8489 10.6361 33.3861 11.4524 35.6032 12.7681C38.4224 14.4439 40.7398 16.9312 42.0156 20.0715C42.7036 21.7713 43.1719 23.668 43.2292 25.7472C43.2866 27.8167 42.933 30.0495 41.9821 32.4119C40.7111 35.5763 39.0292 37.5402 37.4571 39.3792C36.0093 41.0742 34.6619 42.6492 33.9117 45.0645C34.337 45.1653 34.6714 45.5158 34.7383 45.9768C34.8196 46.5722 34.4039 47.1244 33.8114 47.206L33.4434 47.2588C33.3765 47.7822 33.3335 48.344 33.3144 48.9442L33.4339 48.925C34.0264 48.8434 34.5759 49.2612 34.6571 49.8566C34.7383 50.452 34.3226 51.0042 33.7301 51.0858L33.3574 51.1386C33.3622 51.2107 33.367 51.2827 33.3718 51.3547C33.4052 51.7773 33.41 52.1854 33.3861 52.5743L33.4482 52.5647C34.0455 52.4927 34.5854 52.9201 34.6619 53.5155C34.7336 54.1157 34.3083 54.6583 33.7158 54.7351L32.913 54.836C32.3397 56.3293 31.3171 57.4625 30.1082 58.1683C29.2768 58.6533 28.3546 58.9318 27.4276 58.9894C26.4863 59.0471 25.5355 58.8694 24.6658 58.4468C23.672 57.9571 22.7832 57.1456 22.1381 55.9788C21.8276 55.8203 21.5982 55.513 21.5504 55.1385C21.5313 54.9896 21.5456 54.8456 21.5839 54.7111C21.3975 54.1541 21.2542 53.5443 21.1682 52.8721L21.1347 52.8769C20.5422 52.9585 19.9927 52.5407 19.9115 51.9453C19.8303 51.3499 20.246 50.7977 20.8385 50.7161L21.0965 50.6777C21.1156 50.0919 21.1108 49.5349 21.0869 49.0067ZM31.7328 19.3705C32.01 19.3753 32.2919 19.4281 32.5642 19.5193C33.1376 19.7162 33.6871 20.0955 34.1124 20.5997C34.5376 21.1087 34.8435 21.7473 34.9199 22.458C34.9534 22.7701 34.9438 23.0918 34.8817 23.4231C35.1779 23.6968 35.4264 23.9993 35.6127 24.3258C35.9186 24.8492 36.0762 25.4302 36.0571 26.0208C36.038 26.6163 35.8469 27.2117 35.4407 27.7591C35.197 28.0904 34.8769 28.4025 34.4755 28.6858C34.5042 29.5693 34.2414 30.3664 33.8161 30.981C33.3431 31.6677 32.6646 32.143 31.9526 32.2919C31.7806 32.9113 31.3649 33.4587 30.8393 33.838C30.1512 34.3326 29.2529 34.5631 28.4311 34.3374C27.8672 34.1838 27.3512 33.8236 26.9785 33.209C26.5293 33.8909 25.9368 34.2558 25.3157 34.3854C24.5225 34.5535 23.7006 34.3086 23.0795 33.8236C22.6016 33.4491 22.2385 32.9257 22.0951 32.3303C21.8658 32.3111 21.6316 32.2631 21.4071 32.1863C20.848 31.9942 20.3081 31.6293 19.8924 31.1395C19.4719 30.6497 19.1613 30.0351 19.0657 29.3484C19.018 29.0075 19.0227 28.6474 19.0944 28.2825C18.8364 28.0424 18.6166 27.7735 18.435 27.4806C18.1149 26.9572 17.9333 26.3666 17.9429 25.7568C17.9524 25.1421 18.1435 24.5227 18.564 23.9465C18.7982 23.6248 19.1087 23.3175 19.4958 23.0342C19.491 22.9381 19.491 22.8421 19.4958 22.7509C19.5292 21.8578 19.8541 21.0751 20.3272 20.4941C20.3415 20.4797 20.3511 20.4653 20.3654 20.4509C20.8385 19.8891 21.4549 19.5145 22.0951 19.4041C22.119 19.3177 22.1429 19.236 22.1716 19.1496C22.3962 18.5446 22.8501 18.026 23.4091 17.6995C23.973 17.3682 24.6515 17.2241 25.3109 17.3634C25.9034 17.4882 26.472 17.8291 26.9116 18.4533C27.3512 17.8291 27.9198 17.4882 28.5123 17.3634C29.1144 17.2385 29.7307 17.3441 30.2611 17.613C30.782 17.8771 31.2311 18.3045 31.5035 18.8135C31.6086 18.9959 31.685 19.1784 31.7328 19.3705ZM31.9144 30.8994C32.2107 30.7745 32.4973 30.5345 32.7171 30.2127C33.0277 29.7566 33.2045 29.1468 33.1185 28.4601L33.1137 28.4409V28.4265C33.0803 28.1672 33.1997 27.8983 33.4387 27.7543C33.8544 27.5094 34.1554 27.2405 34.3656 26.9524C34.595 26.6355 34.7097 26.3041 34.7192 25.9776C34.7288 25.6463 34.6332 25.315 34.4516 25.0029C34.2844 24.7148 34.0455 24.4507 33.754 24.225C33.5056 24.0617 33.3909 23.7448 33.4912 23.4471C33.5916 23.1494 33.6155 22.8661 33.5868 22.5924C33.539 22.1699 33.3526 21.7809 33.0898 21.464C32.8223 21.1471 32.483 20.9118 32.139 20.7918C31.9909 20.7438 31.8427 20.715 31.7042 20.715C31.599 21.0319 31.427 21.3488 31.169 21.6561C30.9301 21.9394 30.5096 21.9778 30.2277 21.7377C29.9458 21.4976 29.9075 21.0751 30.1465 20.7918C30.5383 20.326 30.543 19.8362 30.3376 19.4569C30.1942 19.188 29.9553 18.9623 29.6734 18.8231C29.401 18.6838 29.0952 18.6262 28.8038 18.6886C28.3785 18.7751 27.9676 19.1352 27.7 19.8843V31.2643C27.7526 31.3412 27.786 31.4276 27.8003 31.5284C27.9532 32.4696 28.3498 32.9209 28.7942 33.0458C29.2051 33.161 29.683 33.0217 30.0652 32.7481C30.4379 32.4792 30.7055 32.0902 30.7103 31.6821C30.7151 31.2163 30.3615 30.6833 29.4202 30.1983C29.0905 30.0303 28.9567 29.6221 29.1239 29.2908C29.2912 28.9595 29.6973 28.8251 30.027 28.9931C31.0925 29.5357 31.6755 30.2127 31.9144 30.8994ZM22.1573 20.7774C21.8849 20.8686 21.6173 21.0559 21.3927 21.3152C21.3832 21.3296 21.3736 21.3392 21.3641 21.3488C21.0583 21.7233 20.8528 22.2227 20.8289 22.7989C20.8241 22.9526 20.8289 23.1158 20.8528 23.2839C20.8862 23.5384 20.7716 23.8025 20.5422 23.9513C20.1408 24.201 19.8446 24.4699 19.6391 24.7532C19.3907 25.0893 19.2808 25.4446 19.276 25.7808C19.2712 26.1265 19.3763 26.4674 19.5675 26.7795C19.7299 27.0436 19.9497 27.2837 20.2221 27.4854C20.4658 27.6534 20.5757 27.9655 20.4801 28.2584C20.375 28.5754 20.3511 28.8827 20.3893 29.1708C20.4466 29.5837 20.6378 29.9583 20.9006 30.2656C21.1634 30.5729 21.4931 30.7986 21.8323 30.9138C21.9422 30.9522 22.0521 30.9762 22.1573 30.9858C22.4009 30.2704 23.0126 29.5645 24.1259 28.9931C24.4556 28.8251 24.857 28.9547 25.029 29.286C25.1962 29.6173 25.0672 30.0207 24.7375 30.1935C23.7388 30.7025 23.3661 31.2787 23.3661 31.7781C23.3661 32.1574 23.5859 32.5176 23.9061 32.7673C24.231 33.0217 24.6515 33.1514 25.0433 33.0698C25.5355 32.9689 26.0133 32.4984 26.2665 31.4708C26.2809 31.4036 26.3095 31.3412 26.343 31.2835V20.4749C26.3286 20.4509 26.3143 20.422 26.3 20.3932L26.2952 20.3836L26.2904 20.374L26.2856 20.3644V20.3596V20.3548L26.2809 20.3452V20.3404V20.3356C26.2761 20.3164 26.2713 20.2972 26.2665 20.278C26.0133 19.2552 25.5355 18.7895 25.0433 18.6886C24.7232 18.6214 24.3791 18.6982 24.0877 18.8711C23.7914 19.044 23.5525 19.3128 23.4378 19.6202C23.2897 20.0235 23.3805 20.5229 23.8918 20.9983C24.1641 21.2527 24.1784 21.6753 23.93 21.949C23.6767 22.2227 23.2562 22.2371 22.9839 21.9874C22.5682 21.5937 22.3006 21.1855 22.1573 20.7774ZM22.2958 23.0006C22.5586 22.7413 22.9839 22.7413 23.2467 23.0102C23.5047 23.2743 23.5047 23.7016 23.2371 23.9657C22.7736 24.4219 22.53 25.0173 22.5061 25.6175C22.4822 26.2417 22.6829 26.8852 23.1081 27.4133C23.3423 27.7015 23.2945 28.1288 23.0078 28.3593C22.7211 28.5946 22.2958 28.5466 22.0665 28.2584C21.431 27.4662 21.1299 26.5058 21.1682 25.5647C21.2016 24.6284 21.5743 23.7112 22.2958 23.0006ZM30.3089 23.7112C30.0079 23.4903 29.941 23.0726 30.1608 22.7701C30.3806 22.4676 30.7963 22.4004 31.0973 22.6212C31.212 22.7077 31.3219 22.7941 31.4222 22.8853C32.1772 23.572 32.5929 24.4747 32.6694 25.411C32.7458 26.3378 32.4878 27.2933 31.9048 28.0952C31.8953 28.1096 31.881 28.1288 31.8666 28.1432C31.7854 28.2536 31.7042 28.3497 31.6277 28.4409C31.3792 28.7194 30.954 28.7386 30.6768 28.4889C30.3997 28.2392 30.3806 27.8119 30.6291 27.5334C30.6912 27.4614 30.7437 27.3989 30.7915 27.3365C30.8011 27.3221 30.8059 27.3125 30.8154 27.2981C31.2024 26.7603 31.3745 26.1265 31.3267 25.5119C31.2789 24.9069 31.0113 24.3258 30.5239 23.8841C30.457 23.8265 30.3854 23.7688 30.3089 23.7112ZM1.04225 28.2633C0.483202 28.2777 0.0197133 27.8407 0.000600382 27.2789C-0.0185125 26.7171 0.421085 26.2513 0.980138 26.2321L5.1372 26.0881C5.69625 26.0689 6.15974 26.5106 6.17885 27.0724C6.19797 27.6342 5.75837 28.1 5.19932 28.1192L1.04225 28.2633ZM52.8861 24.129C53.4403 24.0714 53.9373 24.4795 53.9946 25.0365C54.0519 25.5935 53.6458 26.0929 53.0915 26.1505L48.9536 26.5875C48.3993 26.6451 47.9024 26.2369 47.845 25.6799C47.7877 25.1229 48.1938 24.6235 48.7481 24.5659L52.8861 24.129ZM45.3508 7.09728C45.6614 6.63151 46.2873 6.50667 46.7508 6.81878C47.2143 7.13089 47.3385 7.75992 47.0279 8.22568L44.7153 11.7021C44.4047 12.1679 43.7787 12.2927 43.3153 11.9806C42.8518 11.6685 42.7275 11.0395 43.0381 10.5737L45.3508 7.09728ZM27.5375 0.989496C27.5519 0.427695 28.0154 -0.0140626 28.5696 0.000342509C29.1287 0.0147477 29.5683 0.480514 29.554 1.03751L29.4488 5.21501C29.4345 5.77681 28.971 6.21857 28.4167 6.20416C27.8577 6.18976 27.4181 5.72399 27.4324 5.16699L27.5375 0.989496ZM6.63278 7.45741C6.22186 7.07327 6.20274 6.42984 6.58022 6.0217C6.96248 5.60875 7.60277 5.58954 8.00891 5.96888L11.0526 8.8211C11.4636 9.20523 11.4827 9.84867 11.1052 10.2568C10.7229 10.6698 10.0827 10.689 9.67652 10.3096L6.63278 7.45741ZM22.8788 46.553L31.7137 45.2949C32.4735 42.0778 34.1267 40.1427 35.9186 38.054C37.3903 36.3349 38.9575 34.5007 40.1043 31.6485C40.9453 29.5597 41.2558 27.6006 41.2081 25.7952C41.1603 23.9945 40.7493 22.3331 40.1377 20.8302C39.0387 18.1268 37.0271 15.9757 34.5759 14.5159C32.612 13.3491 30.371 12.6241 28.0823 12.4176C25.803 12.2063 23.476 12.5088 21.3306 13.3875C18.8173 14.4199 16.5572 16.2542 14.9326 19.0151C13.6711 21.4736 13.0882 23.8265 13.0691 26.0881C13.0499 28.3641 13.5994 30.5681 14.5981 32.7144C15.6159 34.904 16.9729 36.4598 18.2726 37.9579C20.2937 40.2868 22.2098 42.4907 22.8788 46.553ZM31.3553 47.5469L23.1033 48.7234C23.1272 49.2516 23.1368 49.8038 23.1272 50.3896L31.2741 49.2275C31.2837 48.6369 31.3076 48.0751 31.3553 47.5469ZM23.1702 52.5887C23.2276 53.0305 23.3136 53.4338 23.4235 53.8084L31.3315 52.8288C31.384 52.4159 31.3936 51.9789 31.3553 51.5132V51.5036L31.3506 51.4219L23.1702 52.5887ZM24.5464 55.8731C24.8522 56.1948 25.1914 56.4445 25.5498 56.6174C26.0993 56.8863 26.7061 56.9967 27.3034 56.9631C27.915 56.9247 28.5314 56.7374 29.0905 56.4109C29.6161 56.1036 30.0891 55.6763 30.4666 55.1385L24.5464 55.8731Z" fill="black"/>
</svg>
