<svg width="15" height="12" viewBox="0 0 15 12" fill="none" xmlns="http://www.w3.org/2000/svg">
<path d="M15 3.86932V10.6364C15 11.0114 14.8689 11.3324 14.6066 11.5994C14.3443 11.8665 14.029 12 13.6607 12H1.33929C0.970982 12 0.655692 11.8665 0.393415 11.5994C0.131138 11.3324 0 11.0114 0 10.6364V3.86932C0.245536 4.14773 0.527344 4.39489 0.845424 4.6108C2.86551 6.00852 4.25223 6.98864 5.00558 7.55114C5.32366 7.78977 5.58175 7.97585 5.77986 8.10938C5.97796 8.2429 6.24163 8.37926 6.57087 8.51847C6.90011 8.65767 7.20703 8.72727 7.49163 8.72727H7.50837C7.79297 8.72727 8.09989 8.65767 8.42913 8.51847C8.75837 8.37926 9.02204 8.2429 9.22015 8.10938C9.41825 7.97585 9.67634 7.78977 9.99442 7.55114C10.9431 6.85227 12.3326 5.87216 14.1629 4.6108C14.481 4.3892 14.76 4.14205 15 3.86932ZM15 1.36364C15 1.8125 14.8633 2.24148 14.5898 2.65057C14.3164 3.05966 13.976 3.40909 13.5686 3.69886C11.4704 5.18182 10.1646 6.10511 9.65123 6.46875C9.59542 6.50852 9.47684 6.59517 9.29548 6.72869C9.11412 6.86222 8.96345 6.97017 8.84347 7.05256C8.72349 7.13494 8.5784 7.22727 8.4082 7.32955C8.238 7.43182 8.07757 7.50852 7.9269 7.55966C7.77623 7.6108 7.63672 7.63636 7.50837 7.63636H7.49163C7.36328 7.63636 7.22377 7.6108 7.0731 7.55966C6.92243 7.50852 6.762 7.43182 6.5918 7.32955C6.4216 7.22727 6.27651 7.13494 6.15653 7.05256C6.03655 6.97017 5.88588 6.86222 5.70452 6.72869C5.52316 6.59517 5.40458 6.50852 5.34877 6.46875C4.84096 6.10511 4.10993 5.58665 3.15569 4.91335C2.20145 4.24006 1.62946 3.83523 1.43973 3.69886C1.09375 3.46023 0.767299 3.1321 0.46038 2.71449C0.15346 2.29688 0 1.90909 0 1.55114C0 1.10795 0.115792 0.738636 0.347377 0.443182C0.578962 0.147727 0.909598 0 1.33929 0H13.6607C14.0234 0 14.3373 0.133523 14.6024 0.400568C14.8675 0.667614 15 0.988636 15 1.36364Z" fill="white"/>
</svg>
