<svg width="99" height="99" viewBox="0 0 99 99" fill="none" xmlns="http://www.w3.org/2000/svg">
<path d="M15.6953 83.0097L15.6966 83.0085C16.5527 82.2333 16.6179 80.9108 15.8411 80.0529C14.2886 78.3386 13.4332 76.119 13.4332 73.8084V71.7172C13.4332 65.6557 17.5169 60.4017 23.3784 58.9452C24.5441 58.6552 25.7913 58.8073 26.8496 59.4052C33.8446 63.2382 42.4402 63.2582 49.4963 59.3884C50.5263 58.8086 51.7779 58.6606 52.9382 58.9494C58.7963 60.402 62.879 65.6608 62.879 71.7212V73.8129C62.879 76.1283 62.0191 78.3469 60.4716 80.0564M15.6953 83.0097L59.7299 79.3856M15.6953 83.0097C14.8386 83.7883 13.5209 83.7252 12.7407 82.8639C10.4901 80.3789 9.25 77.1654 9.25 73.8084V71.7172C9.25 63.7176 14.6443 56.7983 22.3669 54.8801M15.6953 83.0097L63.5766 82.8716M60.4716 80.0564C60.4715 80.0565 60.4713 80.0566 60.4712 80.0568L59.7299 79.3856M60.4716 80.0564C60.4718 80.0561 60.472 80.0559 60.4723 80.0556L59.7299 79.3856M60.4716 80.0564C59.6936 80.9192 59.7605 82.2418 60.6147 83.0163M59.7299 79.3856C58.5832 80.6561 58.6781 82.6116 59.9444 83.7583M60.6147 83.0163C60.6147 83.0162 60.6146 83.0161 60.6145 83.0161L59.9444 83.7583M60.6147 83.0163C61.0181 83.3803 61.5191 83.5585 62.0233 83.5585C62.5951 83.5585 63.1637 83.3263 63.5766 82.8716M60.6147 83.0163C60.615 83.0165 60.6154 83.0168 60.6157 83.0171L59.9444 83.7583M59.9444 83.7583C60.5384 84.2946 61.2808 84.5585 62.0233 84.5585C62.8648 84.5585 63.7064 84.2162 64.3169 83.5438L63.5766 82.8716M63.5766 82.8716C65.8268 80.3867 67.0665 77.1736 67.0665 73.817V71.7253C67.0665 63.7302 61.6722 56.81 53.9479 54.8798M53.9479 54.8798C53.9483 54.8799 53.9486 54.8799 53.949 54.88L54.19 53.9095L53.9476 54.8797C53.9477 54.8797 53.9478 54.8797 53.9479 54.8798ZM53.9479 54.8798C51.747 54.3335 49.3657 54.6499 47.4617 55.7216L47.452 55.7271L47.4519 55.727C41.6746 58.8941 34.6007 58.8779 28.8889 55.7434L28.8799 55.7385L28.88 55.7384C26.9484 54.6526 24.57 54.334 22.3669 54.8801M22.3669 54.8801C22.3671 54.8801 22.3672 54.8801 22.3673 54.88L22.1263 53.9095L22.3669 54.8801ZM60.5877 17.6734L60.5872 17.6733C59.4423 17.5313 58.6284 16.4858 58.7711 15.3361C58.9124 14.1976 59.9611 13.3837 61.1104 13.5202C70.3836 14.6757 77.379 22.6059 77.379 31.9688C77.379 37.6379 74.8399 42.9282 70.4067 46.4842L70.4056 46.4851C70.0211 46.7944 69.5597 46.9451 69.0978 46.9451C68.4846 46.9451 67.8778 46.6767 67.4654 46.1612L67.4647 46.1603C66.742 45.2591 66.887 43.9411 67.7888 43.218L67.7891 43.2177C71.2219 40.4626 73.1915 36.3605 73.1915 31.9688C73.1915 24.7175 67.7767 18.5692 60.5877 17.6734ZM73.563 58.9574C72.443 58.6777 71.7571 57.5402 72.0358 56.4199C72.3148 55.3025 73.4509 54.6167 74.5748 54.8928C82.2971 56.8111 87.6915 63.7301 87.6915 71.7338V73.825C87.6915 77.1821 86.4515 80.3955 84.2008 82.8805C83.788 83.3347 83.2198 83.5665 82.6483 83.5665C82.1447 83.5665 81.6445 83.3888 81.2414 83.0258C80.3835 82.2456 80.3201 80.9219 81.0962 80.0649C82.6485 78.3509 83.504 76.1361 83.504 73.821V71.7298C83.504 65.6693 79.4213 60.41 73.563 58.9574ZM19.5665 31.9688C19.5665 21.7177 27.9092 13.375 38.1603 13.375C48.4114 13.375 56.754 21.7177 56.754 31.9688C56.754 42.2198 48.4114 50.5625 38.1603 50.5625C27.9092 50.5625 19.5665 42.2198 19.5665 31.9688ZM23.754 31.9688C23.754 39.913 30.216 46.375 38.1603 46.375C46.1046 46.375 52.5665 39.913 52.5665 31.9688C52.5665 24.0245 46.1046 17.5625 38.1603 17.5625C30.216 17.5625 23.754 24.0245 23.754 31.9688Z" fill="#CED9DC" stroke="#CED9DC" stroke-width="2"/>
</svg>
