<svg width="70" height="70" viewBox="0 0 70 70" fill="none" xmlns="http://www.w3.org/2000/svg">
<path d="M46 68V48.2C46 46.1465 46 45.1197 45.6004 44.3354C45.2488 43.6454 44.6879 43.0845 43.998 42.733C43.2136 42.3333 42.1869 42.3333 40.1333 42.3333H29.8667C27.8131 42.3333 26.7864 42.3333 26.002 42.733C25.3121 43.0845 24.7512 43.6454 24.3996 44.3354C24 45.1197 24 46.1465 24 48.2V68M2 16.6667C2 22.7418 6.92487 27.6667 13 27.6667C19.0751 27.6667 24 22.7418 24 16.6667C24 22.7418 28.9249 27.6667 35 27.6667C41.0751 27.6667 46 22.7418 46 16.6667C46 22.7418 50.9249 27.6667 57 27.6667C63.0751 27.6667 68 22.7418 68 16.6667M13.7333 68H56.2667C60.3737 68 62.4272 68 63.9959 67.2007C65.3758 66.4976 66.4976 65.3758 67.2007 63.9959C68 62.4272 68 60.3737 68 56.2667V13.7333C68 9.62628 68 7.57276 67.2007 6.00407C66.4976 4.62421 65.3758 3.50236 63.9959 2.79929C62.4272 2 60.3737 2 56.2667 2H13.7333C9.62628 2 7.57276 2 6.00407 2.79929C4.62421 3.50236 3.50236 4.62421 2.79929 6.00407C2 7.57276 2 9.62628 2 13.7333V56.2667C2 60.3737 2 62.4272 2.79929 63.9959C3.50236 65.3758 4.62421 66.4976 6.00407 67.2007C7.57276 68 9.62628 68 13.7333 68Z" stroke="#CED9DC" stroke-width="4" stroke-linecap="round" stroke-linejoin="round"/>
</svg>
