<svg width="83" height="83" viewBox="0 0 83 83" fill="none" xmlns="http://www.w3.org/2000/svg">
<path d="M22.8966 37.2129C18.3681 37.2129 13.9412 38.5558 10.1759 41.0717C6.4106 43.5876 3.47589 47.1635 1.74291 51.3473C0.00992064 55.5311 -0.443507 60.1348 0.439961 64.5763C1.32343 69.0178 3.50411 73.0976 6.70625 76.2998C9.90839 79.5019 13.9882 81.6826 18.4297 82.566C22.8712 83.4495 27.4749 82.9961 31.6587 81.2631C35.8425 79.5301 39.4184 76.5954 41.9343 72.8301C44.4503 69.0648 45.7931 64.638 45.7931 60.1094C45.7931 54.0369 43.3808 48.2131 39.0869 43.9191C34.7929 39.6252 28.9691 37.2129 22.8966 37.2129ZM31.9979 65.1753C32.531 65.7115 32.8302 66.4369 32.8302 67.1931C32.8302 67.9492 32.531 68.6746 31.9979 69.2108C31.4617 69.7439 30.7363 70.0431 29.9802 70.0431C29.2241 70.0431 28.4987 69.7439 27.9624 69.2108L22.8966 64.145L17.8879 69.2108C17.3517 69.7439 16.6263 70.0431 15.8702 70.0431C15.1141 70.0431 14.3887 69.7439 13.8524 69.2108C13.3194 68.6746 13.0202 67.9492 13.0202 67.1931C13.0202 66.4369 13.3194 65.7115 13.8524 65.1753L18.9183 60.1094L13.8524 55.0436C13.5528 54.787 13.3095 54.4713 13.1377 54.1162C12.9659 53.7611 12.8694 53.3743 12.8541 52.9802C12.8389 52.586 12.9053 52.193 13.0492 51.8257C13.1931 51.4584 13.4114 51.1248 13.6903 50.8459C13.9692 50.567 14.3028 50.3487 14.6701 50.2049C15.0373 50.061 15.4304 49.9946 15.8245 50.0098C16.2187 50.025 16.6055 50.1215 16.9605 50.2933C17.3156 50.4651 17.6314 50.7085 17.8879 51.0081L22.8966 56.0739L27.9624 51.0081C28.219 50.7085 28.5347 50.4651 28.8898 50.2933C29.2449 50.1215 29.6317 50.025 30.0258 50.0098C30.42 49.9946 30.813 50.061 31.1803 50.2049C31.5476 50.3487 31.8812 50.567 32.1601 50.8459C32.439 51.1248 32.6573 51.4584 32.8011 51.8257C32.945 52.193 33.0115 52.586 32.9962 52.9802C32.981 53.3743 32.8845 53.7611 32.7127 54.1162C32.5409 54.4713 32.2975 54.787 31.9979 55.0436L26.9893 60.1094L31.9979 65.1753Z" fill="#CED9DC"/>
<path d="M77.2759 80.1436C76.1438 80.1436 75.0371 79.8079 74.0957 79.1789C73.1544 78.5499 72.4207 77.6559 71.9875 76.61C71.5542 75.564 71.4409 74.4131 71.6617 73.3027C71.8826 72.1924 72.4278 71.1724 73.2283 70.3719C74.0289 69.5713 75.0488 69.0262 76.1592 68.8053C77.2695 68.5844 78.4205 68.6978 79.4664 69.131C80.5124 69.5643 81.4064 70.298 82.0353 71.2393C82.6643 72.1806 83 73.2873 83 74.4195C83 75.9376 82.397 77.3935 81.3235 78.467C80.25 79.5405 78.794 80.1436 77.2759 80.1436Z" fill="#CED9DC"/>
<path d="M78.1627 1.52244C77.6333 1.01006 77.0048 0.611222 76.3158 0.35038C75.6268 0.0895393 74.8917 -0.0278046 74.1558 0.00554527C62.5992 0.518719 51.3199 3.70989 41.2074 9.32737C31.0949 14.9449 22.4259 22.835 15.884 32.3755C18.1761 31.7932 20.5312 31.4952 22.8961 31.4883H23.6116C29.7224 23.8358 37.3989 17.5784 46.1262 13.1358C54.8535 8.69316 64.4298 6.16801 74.213 5.72968C74.3195 5.96272 74.3686 6.2179 74.3561 6.47382L74.4133 11.4538C66.0188 11.8029 57.7803 13.8376 50.1885 17.4368C42.5966 21.0361 35.8067 26.1262 30.223 32.4042C32.2033 32.9224 34.1224 33.6517 35.9471 34.5793C46.1053 24.0368 59.9298 17.8061 74.5564 17.178C76.0496 17.1406 77.4691 16.5211 78.5118 15.4516C79.5546 14.3822 80.138 12.9475 80.1375 11.4538V6.38796C80.1564 5.4853 79.991 4.58827 79.6515 3.75169C79.3119 2.91512 78.8053 2.15658 78.1627 1.52244Z" fill="#CED9DC"/>
<path d="M78.1354 47.3441C77.5263 46.8103 76.8107 46.4117 76.0361 46.1749C75.2616 45.9381 74.4455 45.8684 73.642 45.9703C68.9307 46.566 64.4417 48.3246 60.5795 51.0876C56.7174 53.8506 53.6034 57.5311 51.5182 61.7976C51.3055 65.4177 50.402 68.9637 48.8564 72.2441C49.0195 73.3646 49.4957 74.4163 50.2302 75.2779C50.7698 75.8921 51.4347 76.3837 52.1802 76.7194C52.9257 77.0551 53.7344 77.2272 54.552 77.2241H59.6751C61.108 77.2988 62.5197 76.8535 63.6504 75.97C64.781 75.0865 65.5545 73.8243 65.8285 72.4159C66.2163 70.0511 67.3363 67.8677 69.0308 66.1733C70.7252 64.4788 72.9086 63.3588 75.2733 62.971C76.6278 62.7516 77.8584 62.0529 78.741 61.0023C79.6235 59.9516 80.0993 58.6189 80.0816 57.2469V51.5228C80.0646 50.7294 79.8828 49.9482 79.5477 49.2289C79.2127 48.5095 78.7317 47.8677 78.1354 47.3441ZM74.4147 57.4472C70.8861 58.0364 67.6296 59.7128 65.1 62.2425C62.5703 64.7721 60.8939 68.0286 60.3047 71.5572C60.0868 71.593 59.8644 71.593 59.6464 71.5572H54.3802C55.0166 66.4797 57.3355 61.7617 60.9669 58.1563C64.5983 54.5508 69.3328 52.2658 74.4147 51.6659V57.4472Z" fill="#CED9DC"/>
<path d="M78.3064 24.5048C77.7229 23.9554 77.0339 23.53 76.2812 23.2545C75.5286 22.979 74.7278 22.8591 73.9274 22.9021C61.4793 23.7009 49.7438 28.989 40.8992 37.7848C42.3954 38.9893 43.7665 40.3412 44.9919 41.8203C52.8662 33.9875 63.3275 29.2962 74.414 28.6262V34.3503C64.4445 35.0703 55.1041 39.4904 48.2261 46.7431C49.229 48.64 50.0071 50.6475 50.5443 52.7248C53.5099 49.0618 57.1976 46.0484 61.3779 43.8721C65.5583 41.6957 70.1418 40.403 74.8433 40.0745C76.2858 39.966 77.6338 39.3153 78.6161 38.2534C79.5984 37.1914 80.1422 35.7969 80.1381 34.3503V28.6262C80.1278 27.851 79.9602 27.086 79.6453 26.3775C79.3304 25.6691 78.8749 25.0319 78.3064 24.5048Z" fill="#CED9DC"/>
</svg>
