<svg width="96" height="96" viewBox="0 0 96 96" fill="none" xmlns="http://www.w3.org/2000/svg">
<path fill-rule="evenodd" clip-rule="evenodd" d="M75.4269 35.1191L31.6885 78.8576H82.2841C83.4738 78.8576 84.5744 78.2439 85.2018 77.2324C85.8258 76.221 85.8807 74.9593 85.3493 73.8964C85.3493 73.8964 79.3458 61.8861 76.5138 56.2186C75.7972 54.7924 75.4269 53.2152 75.4269 51.6209V35.1191Z" fill="#CED9DC"/>
<path fill-rule="evenodd" clip-rule="evenodd" d="M58.2844 85.7148H37.7129V85.7217C37.7129 88.4474 38.7963 91.0634 40.7232 92.9903C42.65 94.9172 45.2661 96.0006 47.9918 96.0006H47.9986C50.7278 96.0006 53.3438 94.9172 55.2707 92.9869C57.201 91.06 58.2844 88.444 58.2844 85.7148Z" fill="#CED9DC"/>
<path fill-rule="evenodd" clip-rule="evenodd" d="M12.5126 78.638L1.00286 90.1478C-0.334287 91.4849 -0.334287 93.6586 1.00286 94.9958C2.34001 96.3329 4.51374 96.3329 5.85088 94.9958L94.9941 5.85259C96.3346 4.51545 96.3346 2.34172 94.9941 1.00458C93.6569 -0.332573 91.4832 -0.332573 90.146 1.00458L71.3163 19.8344C67.0477 12.9635 59.8271 8.11889 51.4271 7.06974V3.42858C51.4271 1.53601 49.891 0 47.9985 0C46.1059 0 44.5699 1.53601 44.5699 3.42858V7.06974C31.0407 8.7566 20.5698 20.2972 20.5698 34.2858C20.5698 43.7659 20.5698 46.7007 20.5698 51.6208C20.5698 53.2151 20.1995 54.7922 19.4829 56.2185C16.6509 61.8859 10.6475 73.8963 10.6475 73.8963C10.1161 74.9591 10.1709 76.2209 10.7949 77.2323C11.2029 77.8871 11.8098 78.3774 12.5126 78.638Z" fill="#CED9DC"/>
</svg>
