<svg width="91" height="78" viewBox="0 0 91 78" fill="none" xmlns="http://www.w3.org/2000/svg">
<path d="M71.1786 57.9688V45.4998C71.1786 31.3445 59.6553 19.8213 45.5 19.8213C31.3447 19.8213 19.8215 31.3445 19.8215 45.4998V57.9688C16.3017 58.1014 13.4644 61.0204 13.4644 64.5712V70.9284C13.4644 74.5629 16.437 77.5355 20.0715 77.5355H70.9286C74.5631 77.5355 77.5357 74.5629 77.5357 70.9284V64.5712C77.5357 61.0204 74.6984 58.1014 71.1786 57.9688ZM26.6786 45.4998C26.6786 35.1166 35.117 26.6784 45.5 26.6784C55.8831 26.6784 64.3214 35.1168 64.3214 45.4998V57.9641H26.6786V45.4998ZM20.3215 70.6784V64.8212H70.6786V70.6784H20.3215Z" fill="#CED9DC" stroke="#CED9DC" stroke-width="0.5"/>
<path d="M45.5001 13.9643C47.3864 13.9643 48.9287 12.422 48.9287 10.5357V4.17857C48.9287 2.29223 47.3864 0.75 45.5001 0.75C43.6138 0.75 42.0715 2.29223 42.0715 4.17857V10.5357C42.0715 12.422 43.6138 13.9643 45.5001 13.9643Z" fill="#CED9DC" stroke="#CED9DC" stroke-width="0.5"/>
<path d="M10.5357 42.0713H4.17857C2.29223 42.0713 0.75 43.6135 0.75 45.4999C0.75 47.3862 2.29223 48.9284 4.17857 48.9284H10.5357C12.422 48.9284 13.9643 47.3862 13.9643 45.4999C13.9643 43.6135 12.422 42.0713 10.5357 42.0713Z" fill="#CED9DC" stroke="#CED9DC" stroke-width="0.5"/>
<path d="M86.8213 42.0713H80.4642C78.5779 42.0713 77.0356 43.6135 77.0356 45.4999C77.0356 47.3862 78.5779 48.9284 80.4642 48.9284H86.8213C88.7077 48.9284 90.2499 47.3862 90.2499 45.4999C90.2499 43.6135 88.7077 42.0713 86.8213 42.0713Z" fill="#CED9DC" stroke="#CED9DC" stroke-width="0.5"/>
<path d="M13.887 18.723L17.9419 22.778H17.91L18.3368 23.2048C19.0233 23.8913 19.8834 24.1998 20.7704 24.1998C21.6631 24.1998 22.5188 23.8558 23.1994 23.2092L23.1995 23.2093L23.204 23.2048C24.5413 21.8675 24.5413 19.7067 23.204 18.3695C23.204 18.3695 23.204 18.3695 23.204 18.3695L18.7223 13.8878C17.385 12.5504 15.2242 12.5504 13.887 13.8878C12.5498 15.2251 12.5496 17.3858 13.887 18.723C13.887 18.723 13.887 18.723 13.887 18.723Z" fill="#CED9DC" stroke="#CED9DC" stroke-width="0.5"/>
<path d="M72.6574 23.2092L72.6575 23.2093L72.662 23.2047L77.1437 18.723C78.481 17.3857 78.4811 15.2249 77.1437 13.8877C75.8064 12.5505 73.6457 12.5504 72.3084 13.8877C72.3084 13.8877 72.3084 13.8877 72.3084 13.8877L67.8267 18.3695C66.4894 19.7068 66.4894 21.8675 67.8267 23.2047C68.505 23.883 69.3527 24.1923 70.2284 24.1996V24.1997H70.2603V24.1996C71.1414 24.1915 71.9849 23.8481 72.6574 23.2092Z" fill="#CED9DC" stroke="#CED9DC" stroke-width="0.5"/>
<path d="M42.3213 32.5361C36.9387 32.5361 32.5356 36.9392 32.5356 42.3218C32.5356 44.2082 34.0779 45.7504 35.9642 45.7504C37.8505 45.7504 39.3928 44.2082 39.3928 42.3218C39.3928 40.7116 40.7112 39.3933 42.3213 39.3933C44.2077 39.3933 45.7499 37.851 45.7499 35.9647C45.7499 34.0784 44.2077 32.5361 42.3213 32.5361Z" fill="#CED9DC" stroke="#CED9DC" stroke-width="0.5"/>
</svg>
