<svg width="18" height="18" viewBox="0 0 18 18" fill="none" xmlns="http://www.w3.org/2000/svg">
<path fill-rule="evenodd" clip-rule="evenodd" d="M16.3399 7.04228V14.9737H14.5417V7.04228H16.3399ZM13.3026 13.7407C13.6767 13.0777 13.4547 12.2299 12.8066 11.8471C12.7948 11.8401 12.7829 11.8334 12.771 11.8268V9.96692L12.3837 9.60803L12.771 9.24914L12.3837 8.89025L12.771 8.53136V8.2873L12.1292 7.58196L11.4874 8.2873V11.8267C11.2728 11.9445 11.0865 12.1229 10.9558 12.3546C10.5817 13.0176 10.8037 13.8654 11.4517 14.2482C12.0998 14.6309 12.9284 14.4038 13.3026 13.7407ZM12.1292 13.7952C11.9067 13.7952 11.7264 13.6106 11.7264 13.383C11.7264 13.1554 11.9067 12.9709 12.1292 12.9709C12.3517 12.9709 12.532 13.1554 12.532 13.383C12.5321 13.6106 12.3517 13.7952 12.1292 13.7952ZM7.15777 7.82632C7.96009 7.82632 8.61049 8.49177 8.61049 9.3126C8.61049 10.1335 7.96009 10.7989 7.15777 10.7989C6.35546 10.7989 5.70506 10.1335 5.70506 9.3126C5.70506 8.49177 6.35546 7.82632 7.15777 7.82632ZM4.70531 13.806H9.6102C9.83261 13.806 9.99315 13.593 9.9366 13.3729C9.61271 12.1124 8.49139 11.1826 7.15777 11.1826C5.82409 11.1826 4.70276 12.1124 4.37891 13.3729C4.32232 13.5929 4.48294 13.806 4.70531 13.806ZM0.225037 16.9907H17.775C17.8988 16.9907 18 17.0943 18 17.2209V17.7698C18 17.8964 17.8988 18 17.775 18H0.225037C0.10125 18 0 17.8964 0 17.7698V17.2209C0 17.0943 0.101212 16.9907 0.225037 16.9907ZM17.2278 16.3768V15.8177C17.2278 15.6911 17.1266 15.5875 17.0028 15.5875H0.9972C0.873412 15.5875 0.772162 15.6911 0.772162 15.8177V16.3768H17.2278ZM9 0L17.4843 5.0497H0.5157L9 0ZM18 5.66354V6.02895C18 6.24888 17.8245 6.4284 17.6096 6.4284H0.390412C0.175462 6.4284 0 6.24895 0 6.02895V5.66354H18ZM3.45825 7.04228V14.9737H1.66009V7.04228H3.45825Z" fill="#F6F8FF"/>
</svg>
