<svg width="20" height="18" viewBox="0 0 20 18" fill="none" xmlns="http://www.w3.org/2000/svg">
<path d="M14.501 14.3879V14.895C14.501 15.769 14.178 16.6061 13.592 17.2531C13.444 17.4161 13.24 17.499 13.0359 17.499C12.8559 17.499 12.676 17.4351 12.532 17.3051C12.225 17.0271 12.202 16.553 12.48 16.245C12.815 15.875 13.001 15.395 13.001 14.894V14.387C13.001 13.028 12.086 11.851 10.775 11.526C10.55 11.47 10.31 11.5 10.117 11.609C8.333 12.588 6.15999 12.583 4.39099 11.613C4.18999 11.499 3.95095 11.469 3.72595 11.525C2.41395 11.851 1.49896 13.027 1.49896 14.386V14.8929C1.49896 15.3929 1.68396 15.873 2.01996 16.244C2.29796 16.551 2.27496 17.025 1.96796 17.303C1.66096 17.582 1.188 17.559 0.908997 17.251C0.322997 16.604 0 15.7669 0 14.8929V14.386C0 12.336 1.38295 10.561 3.36395 10.069C3.95695 9.92197 4.597 10.007 5.12 10.301C6.432 11.021 8.05896 11.025 9.38696 10.297C9.90396 10.006 10.545 9.92197 11.137 10.069C13.118 10.564 14.501 12.3389 14.501 14.3879ZM16.137 10.072C15.735 9.97302 15.328 10.218 15.228 10.619C15.128 11.021 15.374 11.428 15.775 11.528C17.086 11.853 18.001 13.03 18.001 14.389V14.896C18.001 15.397 17.816 15.8759 17.48 16.2469C17.202 16.5539 17.225 17.028 17.532 17.307C17.676 17.437 17.8559 17.501 18.0359 17.501C18.24 17.501 18.444 17.418 18.592 17.255C19.178 16.608 19.501 15.771 19.501 14.897V14.39C19.501 12.339 18.118 10.564 16.137 10.072ZM2.50098 4.75C2.50098 2.131 4.63198 0 7.25098 0C9.86998 0 12.001 2.131 12.001 4.75C12.001 7.369 9.86998 9.5 7.25098 9.5C4.63198 9.5 2.50098 7.369 2.50098 4.75ZM4.00098 4.75C4.00098 6.542 5.45898 8 7.25098 8C9.04298 8 10.501 6.542 10.501 4.75C10.501 2.958 9.04298 1.5 7.25098 1.5C5.45898 1.5 4.00098 2.958 4.00098 4.75ZM17.001 4.75C17.001 2.358 15.214 0.331987 12.844 0.0369873C12.435 -0.0120127 12.058 0.276988 12.007 0.687988C11.956 1.09899 12.247 1.47402 12.658 1.52502C14.279 1.72702 15.501 3.114 15.501 4.75C15.501 5.741 15.057 6.66596 14.282 7.28796C13.959 7.54696 13.907 8.01904 14.166 8.34204C14.314 8.52704 14.532 8.62305 14.751 8.62305C14.916 8.62305 15.082 8.56901 15.22 8.45801C16.352 7.55001 17.001 6.198 17.001 4.75Z" fill="black"/>
</svg>
