<svg width="17" height="17" viewBox="0 0 17 17" fill="none" xmlns="http://www.w3.org/2000/svg">
<g clip-path="url(#clip0_292_7129)">
<path d="M11.6876 17C11.4263 16.9997 11.1742 16.903 10.9796 16.7286C10.7851 16.5542 10.6616 16.3141 10.6329 16.0544C10.5698 15.5335 10.3181 15.0537 9.92541 14.7058C9.53272 14.3578 9.02619 14.1656 8.5015 14.1656C7.9768 14.1656 7.47027 14.3578 7.07758 14.7058C6.68489 15.0537 6.43322 15.5335 6.37012 16.0544C6.33912 16.3345 6.19813 16.5908 5.97815 16.7669C5.75817 16.9431 5.47722 17.0246 5.19712 16.9936C4.91702 16.9626 4.6607 16.8216 4.48456 16.6017C4.30842 16.3817 4.22687 16.1007 4.25787 15.8206C4.37837 14.7796 4.87729 13.8193 5.65973 13.1222C6.44218 12.4251 7.45356 12.0399 8.5015 12.0399C9.54943 12.0399 10.5608 12.4251 11.3433 13.1222C12.1257 13.8193 12.6246 14.7796 12.7451 15.8206C12.7605 15.9593 12.7484 16.0997 12.7095 16.2337C12.6706 16.3677 12.6057 16.4927 12.5185 16.6017C12.4312 16.7106 12.3234 16.8013 12.2011 16.8685C12.0789 16.9358 11.9446 16.9783 11.8059 16.9936C11.7666 16.9979 11.7271 17 11.6876 17ZM16.0559 10.6186C16.1946 10.6033 16.3289 10.5608 16.4511 10.4935C16.5734 10.4263 16.6812 10.3356 16.7685 10.2267C16.8557 10.1177 16.9206 9.99271 16.9595 9.8587C16.9984 9.72468 17.0105 9.58432 16.9951 9.44563C16.9141 8.45138 16.4751 7.52031 15.7595 6.82531C15.0439 6.13031 14.1004 5.71861 13.1042 5.66667C12.8225 5.66667 12.5522 5.77861 12.3529 5.97787C12.1537 6.17712 12.0417 6.44738 12.0417 6.72917C12.0417 7.01096 12.1537 7.28121 12.3529 7.48047C12.5522 7.67973 12.8225 7.79167 13.1042 7.79167C13.5758 7.84556 14.013 8.06473 14.3383 8.41028C14.6636 8.75584 14.8561 9.20545 14.8815 9.67938C14.9102 9.93936 15.0339 10.1796 15.2288 10.3541C15.4236 10.5286 15.676 10.625 15.9376 10.625C15.9766 10.6249 16.0156 10.6228 16.0545 10.6186H16.0559ZM2.1187 9.67938C2.14409 9.20545 2.33652 8.75584 2.66185 8.41028C2.98718 8.06473 3.42438 7.84556 3.89591 7.79167C4.17771 7.79167 4.44796 7.67973 4.64721 7.48047C4.84647 7.28121 4.95841 7.01096 4.95841 6.72917C4.95841 6.44738 4.84647 6.17712 4.64721 5.97787C4.44796 5.77861 4.17771 5.66667 3.89591 5.66667C2.89998 5.71895 1.95683 6.13079 1.24155 6.82576C0.526256 7.52073 0.0874065 8.45161 0.00645482 9.44563C-0.00890315 9.58432 0.00320947 9.72468 0.042101 9.8587C0.0809925 9.99271 0.145901 10.1177 0.23312 10.2267C0.320339 10.3356 0.42816 10.4263 0.550427 10.4935C0.672693 10.5608 0.807009 10.6033 0.945705 10.6186C0.984523 10.6228 1.02354 10.6249 1.06258 10.625C1.32415 10.625 1.57653 10.5286 1.7714 10.3541C1.96627 10.1796 2.08993 9.93936 2.1187 9.67938ZM8.55462 11.3333C9.04495 11.3333 9.52428 11.1879 9.93197 10.9155C10.3397 10.6431 10.6574 10.2559 10.8451 9.8029C11.0327 9.3499 11.0818 8.85142 10.9862 8.37051C10.8905 7.8896 10.6544 7.44785 10.3077 7.10113C9.96094 6.75442 9.51919 6.5183 9.03828 6.42264C8.55737 6.32698 8.05889 6.37607 7.60589 6.56372C7.15288 6.75136 6.76568 7.06912 6.49327 7.47682C6.22086 7.88451 6.07545 8.36384 6.07545 8.85417C6.07545 9.51168 6.33665 10.1423 6.80159 10.6072C7.26652 11.0721 7.89711 11.3333 8.55462 11.3333ZM12.8046 4.95833C13.295 4.95833 13.7743 4.81293 14.182 4.54052C14.5897 4.26811 14.9074 3.88091 15.0951 3.4279C15.2827 2.9749 15.3318 2.47642 15.2362 1.99551C15.1405 1.5146 14.9044 1.07285 14.5577 0.726132C14.2109 0.379415 13.7692 0.143297 13.2883 0.0476376C12.8074 -0.0480216 12.3089 0.0010742 11.8559 0.188716C11.4029 0.376359 11.0157 0.69412 10.7433 1.10182C10.4709 1.50951 10.3255 1.98884 10.3255 2.47917C10.3255 2.80474 10.3896 3.12712 10.5142 3.4279C10.6388 3.72869 10.8214 4.00199 11.0516 4.2322C11.2818 4.46242 11.5551 4.64503 11.8559 4.76962C12.1567 4.89421 12.4791 4.95833 12.8046 4.95833ZM4.30462 4.95833C4.79495 4.95833 5.27428 4.81293 5.68197 4.54052C6.08967 4.26811 6.40743 3.88091 6.59507 3.4279C6.78271 2.9749 6.83181 2.47642 6.73615 1.99551C6.64049 1.5146 6.40438 1.07285 6.05766 0.726132C5.71094 0.379415 5.26919 0.143297 4.78828 0.0476376C4.30737 -0.0480216 3.80889 0.0010742 3.35589 0.188716C2.90288 0.376359 2.51568 0.69412 2.24327 1.10182C1.97086 1.50951 1.82545 1.98884 1.82545 2.47917C1.82545 3.13668 2.08665 3.76727 2.55159 4.2322C2.7818 4.46242 3.0551 4.64503 3.35589 4.76962C3.65667 4.89421 3.97905 4.95833 4.30462 4.95833Z" fill="#F6F8FF"/>
</g>
<defs>
<clipPath id="clip0_292_7129">
<rect width="17" height="17" fill="white"/>
</clipPath>
</defs>
</svg>
