<svg width="40" height="40" viewBox="0 0 40 40" fill="none" xmlns="http://www.w3.org/2000/svg">
<path d="M27.4976 39.9998C26.8828 39.999 26.2898 39.7717 25.8321 39.3612C25.3743 38.9508 25.0838 38.386 25.0162 37.7748C24.8677 36.5492 24.2756 35.4204 23.3517 34.6016C22.4279 33.7828 21.2361 33.3307 20.0017 33.3307C18.7672 33.3307 17.5755 33.7828 16.6516 34.6016C15.7277 35.4204 15.1356 36.5492 14.9871 37.7748C14.9142 38.4339 14.5825 39.037 14.0649 39.4514C13.5474 39.8659 12.8864 40.0578 12.2274 39.9848C11.5684 39.9119 10.9653 39.5801 10.5509 39.0625C10.1365 38.5449 9.94466 37.8839 10.0176 37.2248C10.3011 34.7755 11.4749 32.5157 13.3158 30.8755C15.1567 29.2353 17.5362 28.329 20.0017 28.329C22.4672 28.329 24.8467 29.2353 26.6875 30.8755C28.5284 32.5157 29.7023 34.7755 29.9857 37.2248C30.0219 37.5512 29.9934 37.8814 29.9019 38.1968C29.8104 38.5121 29.6577 38.8063 29.4525 39.0626C29.2473 39.3189 28.9936 39.5322 28.7059 39.6905C28.4183 39.8487 28.1023 39.9487 27.7759 39.9848C27.6835 39.9948 27.5906 39.9998 27.4976 39.9998ZM37.775 24.9849C38.1013 24.9488 38.4173 24.8488 38.705 24.6905C38.9927 24.5323 39.2463 24.3189 39.4515 24.0626C39.6567 23.8064 39.8094 23.5121 39.9009 23.1968C39.9925 22.8815 40.0209 22.5512 39.9848 22.2249C39.7943 19.8855 38.7613 17.6948 37.0777 16.0595C35.3942 14.4242 33.1744 13.4555 30.8307 13.3333C30.1677 13.3333 29.5319 13.5967 29.0631 14.0655C28.5943 14.5343 28.3309 15.1702 28.3309 15.8333C28.3309 16.4963 28.5943 17.1322 29.0631 17.601C29.5319 18.0699 30.1677 18.3333 30.8307 18.3333C31.94 18.4601 32.9687 18.9757 33.7341 19.7888C34.4995 20.6019 34.9522 21.6598 35.0119 22.7749C35.0796 23.3866 35.3706 23.9519 35.8291 24.3624C36.2875 24.7729 36.8813 24.9999 37.4967 24.9999C37.5886 24.9998 37.6804 24.9948 37.7717 24.9849H37.775ZM4.98473 22.7749C5.04446 21.6598 5.49718 20.6019 6.26259 19.7888C7.028 18.9757 8.05662 18.4601 9.16601 18.3333C9.82898 18.3333 10.4648 18.0699 10.9336 17.601C11.4024 17.1322 11.6658 16.4963 11.6658 15.8333C11.6658 15.1702 11.4024 14.5343 10.9336 14.0655C10.4648 13.5967 9.82898 13.3333 9.16601 13.3333C6.82285 13.4563 4.60389 14.4253 2.92101 16.0605C1.23813 17.6957 0.205643 19.8861 0.0151864 22.2249C-0.0209466 22.5512 0.00755099 22.8815 0.0990519 23.1968C0.190553 23.5121 0.343265 23.8064 0.548467 24.0626C0.75367 24.3189 1.00734 24.5323 1.295 24.6905C1.58266 24.8488 1.89867 24.9488 2.22498 24.9849C2.31631 24.9948 2.4081 24.9998 2.49996 24.9999C3.11535 24.9999 3.70914 24.7729 4.16762 24.3624C4.62609 23.9519 4.91703 23.3866 4.98473 22.7749ZM20.1267 26.6665C21.2803 26.6665 22.408 26.3244 23.3672 25.6835C24.3264 25.0425 25.074 24.1314 25.5155 23.0655C25.9569 21.9997 26.0724 20.8268 25.8474 19.6952C25.6223 18.5637 25.0668 17.5243 24.2511 16.7085C23.4353 15.8927 22.396 15.3371 21.2646 15.112C20.1331 14.8869 18.9603 15.0025 17.8945 15.444C16.8287 15.8855 15.9178 16.6331 15.2769 17.5924C14.636 18.5517 14.2939 19.6795 14.2939 20.8332C14.2939 22.3803 14.9084 23.8641 16.0022 24.958C17.0961 26.052 18.5797 26.6665 20.1267 26.6665ZM30.1257 11.6666C31.2793 11.6666 32.4071 11.3245 33.3663 10.6835C34.3255 10.0426 35.0731 9.13152 35.5145 8.06562C35.956 6.99972 36.0715 5.82684 35.8464 4.69529C35.6214 3.56374 35.0659 2.52434 34.2501 1.70854C33.4344 0.892736 32.3951 0.337167 31.2636 0.112088C30.1322 -0.112991 28.9594 0.00252751 27.8936 0.444037C26.8278 0.885546 25.9169 1.63322 25.2759 2.5925C24.635 3.55178 24.2929 4.67959 24.2929 5.83331C24.2929 6.59935 24.4438 7.35789 24.7369 8.06562C25.0301 8.77335 25.4597 9.41641 26.0013 9.95808C26.5429 10.4998 27.1859 10.9294 27.8936 11.2226C28.6013 11.5157 29.3598 11.6666 30.1257 11.6666ZM10.1276 11.6666C11.2812 11.6666 12.4089 11.3245 13.3681 10.6835C14.3273 10.0426 15.0749 9.13152 15.5164 8.06562C15.9579 6.99972 16.0734 5.82684 15.8483 4.69529C15.6232 3.56374 15.0677 2.52434 14.252 1.70854C13.4363 0.892736 12.397 0.337167 11.2655 0.112088C10.1341 -0.112991 8.96127 0.00252751 7.89547 0.444037C6.82967 0.885546 5.91871 1.63322 5.27779 2.5925C4.63688 3.55178 4.29479 4.67959 4.29479 5.83331C4.29479 7.3804 4.90931 8.86412 6.00318 9.95808C6.5448 10.4998 7.1878 10.9294 7.89547 11.2226C8.60314 11.5157 9.36161 11.6666 10.1276 11.6666Z" fill="#A2ACCC"/>
</svg>
