<svg width="18" height="24" viewBox="0 0 18 24" fill="none" xmlns="http://www.w3.org/2000/svg">
<path d="M17.4814 4.28965C17.4832 4.30757 17.4841 4.32572 17.4841 4.34391V23.4571C17.4841 23.7569 17.241 24 16.9412 24H0.54293C0.24304 24 0 23.7569 0 23.4571V0.54293C0 0.243093 0.24304 0 0.54293 0H13.1402C13.1584 0 13.1766 0.000957712 13.1946 0.00269531C13.2077 0.00399851 13.2205 0.0062127 13.2334 0.0084375C13.238 0.0092535 13.2427 0.00962287 13.2472 0.0105469C13.2628 0.0136405 13.278 0.0177516 13.293 0.0221484C13.2949 0.0226908 13.2967 0.0230123 13.2986 0.0235547C13.3138 0.0282251 13.3288 0.033691 13.3434 0.0396094C13.3451 0.040315 13.3468 0.0407788 13.3485 0.0414844C13.3623 0.047242 13.3757 0.0537459 13.3889 0.0605859C13.3914 0.0618891 13.394 0.0629155 13.3965 0.0642188C13.4084 0.0705715 13.4197 0.0777393 13.4311 0.0849609C13.4347 0.0872937 13.4386 0.0893674 13.4422 0.0917578C13.4523 0.098545 13.462 0.106 13.4716 0.113437C13.476 0.11686 13.4807 0.119985 13.485 0.123516C13.4949 0.131714 13.5043 0.140563 13.5136 0.149414C13.5171 0.152671 13.5208 0.155603 13.5243 0.159023L17.3251 3.95988C17.3285 3.9633 17.3314 3.96707 17.3347 3.97055C17.3436 3.97989 17.3524 3.9892 17.3606 3.99914C17.3642 4.00348 17.3673 4.00816 17.3707 4.01262C17.3781 4.02223 17.3856 4.03176 17.3924 4.04191C17.3948 4.04555 17.3968 4.04936 17.3992 4.05305C17.4064 4.0644 17.4136 4.07573 17.4199 4.08762C17.4213 4.09012 17.4223 4.09285 17.4236 4.09535C17.4304 4.1086 17.4369 4.12194 17.4427 4.13578C17.4434 4.13741 17.4439 4.13914 17.4445 4.14082C17.4504 4.15548 17.4559 4.17045 17.4606 4.1857C17.4611 4.18755 17.4614 4.18937 17.462 4.19121C17.4664 4.20625 17.4704 4.2215 17.4735 4.23703C17.4744 4.24159 17.4748 4.24618 17.4756 4.25074C17.4778 4.26366 17.4801 4.27645 17.4814 4.28965ZM13.6833 1.85391V3.80086H15.6302L13.6833 1.85391ZM1.08598 22.914H16.3982V4.88684H13.1402C12.8404 4.88684 12.5973 4.64374 12.5973 4.34391V1.08598H1.08598V22.914ZM3.69645 16.8049H13.2964C13.6393 16.8049 13.8841 17.0743 13.8841 17.4171C13.8841 17.76 13.6393 18.0049 13.2964 18.0049H3.69645C3.35359 18.0049 3.08414 17.76 3.08414 17.4171C3.08414 17.0743 3.35359 16.8049 3.69645 16.8049ZM8.49644 9.36H3.72094C3.37808 9.36 3.13312 9.11504 3.13312 8.77219C3.13312 8.42933 3.37808 8.16 3.72094 8.16H8.49644C8.8393 8.16 9.08414 8.42933 9.08414 8.77219C9.08414 9.11504 8.8393 9.36 8.49644 9.36ZM13.2964 12.2498H3.69645C3.35359 12.2498 3.08414 11.9804 3.08414 11.6375C3.08414 11.2947 3.35359 11.0498 3.69645 11.0498H13.2964C13.6393 11.0498 13.8841 11.2947 13.8841 11.6375C13.8841 11.9804 13.6393 12.2498 13.2964 12.2498ZM13.2964 15.1151H3.69645C3.35359 15.1151 3.08414 14.8702 3.08414 14.5274C3.08414 14.1845 3.35359 13.9151 3.69645 13.9151H13.2964C13.6393 13.9151 13.8841 14.1845 13.8841 14.5274C13.8841 14.8702 13.6393 15.1151 13.2964 15.1151Z" fill="black"/>
</svg>
