<svg width="12" height="12" viewBox="0 0 12 12" fill="none" xmlns="http://www.w3.org/2000/svg">
<path d="M8.76642 1.80538C9.14221 1.80538 9.48244 1.95771 9.72874 2.20373C9.97493 2.44984 10.1274 2.78992 10.1274 3.16544C10.1274 3.54095 9.97493 3.88093 9.72874 4.12705C9.48244 4.37316 9.14211 4.52539 8.76642 4.52539C8.39054 4.52539 8.0503 4.37316 7.8041 4.12705C7.55781 3.88093 7.40547 3.54095 7.40547 3.16544C7.40547 2.78992 7.55781 2.44984 7.8041 2.20373C8.0503 1.95762 8.39054 1.80538 8.76642 1.80538ZM11.9181 5.52594L5.53747 11.9019C5.42692 12.0125 5.24753 12.0125 5.13698 11.9019L0.0829112 6.85145C-0.0276371 6.74108 -0.0276371 6.56191 0.0829112 6.45134L6.46356 0.0753796C6.51883 0.020146 6.59129 -0.00756836 6.66376 -0.00756836H11.5516C11.7081 -0.00756836 11.8348 0.119098 11.8348 0.275431C11.8348 0.280115 11.8346 0.284896 11.8344 0.289581L11.9999 5.31691C12.0024 5.39791 11.9705 5.47197 11.9173 5.52516L11.9181 5.52594ZM5.33718 11.3016L11.4316 5.21152L11.2785 0.558429H6.78114L0.6837 6.65149L5.33718 11.3016ZM9.39895 2.53327C9.23713 2.37157 9.0134 2.27145 8.76632 2.27145C8.51925 2.27145 8.29561 2.37148 8.1337 2.53327C7.97178 2.69497 7.87158 2.91854 7.87158 3.16544C7.87158 3.41233 7.97168 3.6358 8.1337 3.7976C8.29552 3.95939 8.51915 4.05942 8.76632 4.05942C9.0133 4.05942 9.23703 3.95939 9.39895 3.7976C9.56086 3.6358 9.66096 3.41233 9.66096 3.16544C9.66096 2.91854 9.56077 2.69497 9.39895 2.53327Z" fill="black"/>
</svg>
