<svg width="21" height="23" viewBox="0 0 21 23" fill="none" xmlns="http://www.w3.org/2000/svg">
<path fill-rule="evenodd" clip-rule="evenodd" d="M20.9767 13.0573C21.2365 18.4685 19.31 21.6673 15.8953 23C12.5979 21.7497 10.6426 18.6931 10.7941 12.9749C12.6237 13.1163 14.4375 12.5368 15.8737 11.3521C17.3366 12.3142 19.2017 13.2239 20.9749 13.0573H20.9767ZM11.3389 2.26856L15.0728 5.89787H11.3389V2.26856ZM3.52469 10.6259C3.56388 10.5813 3.61148 10.5455 3.66453 10.5207C3.71758 10.4959 3.77497 10.4826 3.83314 10.4818H11.3822C11.442 10.482 11.5011 10.4954 11.5556 10.5213C11.61 10.5471 11.6585 10.5847 11.6978 10.6315C11.7783 10.7294 11.8224 10.8538 11.8224 10.9825C11.8224 11.1111 11.7783 11.2355 11.6978 11.3334C11.6708 11.3631 11.6405 11.3895 11.6076 11.412C11.4633 11.4401 11.319 11.4626 11.1747 11.4832H3.84036C3.78043 11.4829 3.72121 11.4696 3.66654 11.4441C3.61186 11.4186 3.56293 11.3816 3.52289 11.3353C3.44079 11.2375 3.39557 11.1122 3.39557 10.9825C3.39557 10.8528 3.44079 10.7274 3.52289 10.6296L3.52469 10.6259ZM3.52469 13.7573C3.56405 13.7104 3.61252 13.6727 3.66692 13.6465C3.72132 13.6204 3.78042 13.6065 3.84036 13.6057H9.0949C9.11114 13.9482 9.13278 14.2833 9.16164 14.6108H3.84036C3.78039 14.6108 3.72111 14.5976 3.6664 14.5721C3.61169 14.5466 3.56278 14.5094 3.52289 14.463C3.44079 14.3652 3.39557 14.2398 3.39557 14.1101C3.39557 13.9804 3.44079 13.8551 3.52289 13.7573H3.52469ZM3.52469 16.8869C3.56436 16.8405 3.61293 16.8032 3.66729 16.7774C3.72165 16.7516 3.7806 16.7379 3.84036 16.7371H9.45928C9.52782 17.0828 9.60539 17.4178 9.69197 17.7423H3.84036C3.7802 17.7423 3.72072 17.729 3.66595 17.7032C3.61118 17.6773 3.56239 17.6396 3.52289 17.5925C3.44039 17.4947 3.39544 17.3688 3.39662 17.2388C3.39704 17.1093 3.44253 16.9843 3.52469 16.8869ZM3.52469 7.49447C3.56405 7.44756 3.61252 7.40981 3.66692 7.38368C3.72132 7.35756 3.78042 7.34364 3.84036 7.34286H8.16954C8.22898 7.34296 8.28771 7.35621 8.34183 7.3817C8.39595 7.4072 8.44421 7.44437 8.48341 7.49073C8.56632 7.58905 8.61129 7.71571 8.60967 7.84636C8.60975 7.97559 8.56492 8.10053 8.48341 8.19825C8.44394 8.2444 8.39566 8.28154 8.34163 8.30732C8.2876 8.3331 8.229 8.34694 8.16954 8.34799H3.84036C3.78043 8.3477 3.72121 8.33439 3.66654 8.30893C3.61186 8.28346 3.56293 8.24639 3.52289 8.20012C3.44041 8.10152 3.3955 7.97504 3.39662 7.84449C3.39505 7.71295 3.4407 7.58552 3.52469 7.48698V7.49447ZM3.52469 4.58204C3.56405 4.53513 3.61252 4.49737 3.66692 4.47125C3.72132 4.44512 3.78042 4.43121 3.84036 4.43042H6.22141C6.28037 4.4308 6.33859 4.44398 6.39234 4.46912C6.44609 4.49427 6.49417 4.53082 6.53347 4.57642C6.61557 4.67422 6.66079 4.79954 6.66079 4.92924C6.66079 5.05894 6.61557 5.18427 6.53347 5.28207C6.49414 5.3284 6.44589 5.36567 6.39183 5.39146C6.33777 5.41725 6.2791 5.43099 6.2196 5.43181H3.84036C3.78039 5.43175 3.72111 5.41855 3.6664 5.39307C3.61169 5.36759 3.56278 5.3304 3.52289 5.28394C3.44079 5.18614 3.39557 5.06082 3.39557 4.93112C3.39557 4.80142 3.44079 4.6761 3.52289 4.57829L3.52469 4.58204ZM17.1508 6.41822C17.1499 6.2785 17.1053 6.14286 17.0236 6.03177C16.9419 5.92069 16.8277 5.84018 16.698 5.80241L11.1964 0.237717C11.1388 0.163171 11.0657 0.103076 10.9827 0.0619159C10.8996 0.0207558 10.8086 -0.000407134 10.7165 5.93243e-06H1.11839C0.821775 5.93243e-06 0.537313 0.122271 0.327578 0.339903C0.117842 0.557536 1.40788e-05 0.852708 1.40788e-05 1.16049V21.0122C-0.000728709 21.1649 0.0279273 21.3163 0.0843017 21.4574C0.140676 21.5985 0.223634 21.7265 0.32831 21.8339C0.538264 22.0506 0.822261 22.1724 1.11839 22.1727H11.8908C11.5514 21.768 11.2449 21.3347 10.9745 20.8774H1.24826V1.28964H10.087V6.55111C10.0875 6.72354 10.1538 6.88874 10.2715 7.01049C10.3892 7.13224 10.5486 7.20061 10.7147 7.20061H15.9025V9.41301C16.3246 9.69003 16.7407 9.94271 17.1508 10.1711V6.41822ZM13.121 16.6436L14.0969 16.6305C14.3567 16.6754 14.8906 17.1695 15.0782 17.3792C15.2387 17.1134 15.4047 16.8588 15.576 16.6117C15.7661 16.3372 15.9609 16.0752 16.1605 15.8256C16.3769 15.5523 16.6024 15.2922 16.8333 15.0432C17.0335 14.8261 17.3943 14.3881 17.6559 14.2833C17.6636 14.2813 17.6716 14.2813 17.6793 14.2833H18.7472C18.7639 14.2833 18.78 14.2902 18.7918 14.3025C18.8037 14.3148 18.8103 14.3314 18.8103 14.3488C18.8104 14.3576 18.8087 14.3664 18.8053 14.3744C18.8018 14.3825 18.7968 14.3897 18.7905 14.3956L18.5794 14.6333C18.2499 15.0077 17.9361 15.3926 17.6378 15.7882C17.3366 16.1831 17.0498 16.5855 16.7792 16.9917C16.5086 17.3979 16.2543 17.8059 16.0126 18.2233C15.7709 18.6407 15.54 19.0712 15.3253 19.5036L15.19 19.7731C15.182 19.7881 15.1688 19.7994 15.153 19.8046C15.1373 19.8098 15.1202 19.8086 15.1053 19.8012C15.093 19.7935 15.0831 19.7825 15.0764 19.7694L14.9537 19.4961C14.844 19.2477 14.7199 19.0065 14.5821 18.7736C14.4483 18.5459 14.3001 18.3277 14.1384 18.1204C13.9773 17.9139 13.8025 17.7194 13.6153 17.5382C13.4239 17.3542 13.2195 17.1852 13.0038 17.0329C12.9926 17.0247 12.9843 17.013 12.98 16.9995C12.9758 16.986 12.9759 16.9714 12.9803 16.958L13.0579 16.6885C13.0622 16.6747 13.0706 16.6627 13.082 16.6542C13.0934 16.6458 13.1071 16.6414 13.121 16.6417V16.6436Z" fill="black"/>
</svg>
