<svg width="18" height="24" viewBox="0 0 18 24" fill="none" xmlns="http://www.w3.org/2000/svg">
<path d="M8.99896 10.3561C6.10407 10.3561 3.74896 8.03327 3.74896 5.17805C3.74896 2.32283 6.10407 0 8.99896 0C11.8939 0 14.249 2.32283 14.249 5.17805C14.249 8.03327 11.8939 10.3561 8.99896 10.3561ZM8.99896 1.47944C6.93134 1.47944 5.24896 3.13876 5.24896 5.17805C5.24896 7.21734 6.93134 8.87665 8.99896 8.87665C11.0666 8.87665 12.749 7.21734 12.749 5.17805C12.749 3.13876 11.0666 1.47944 8.99896 1.47944Z" fill="black"/>
<path d="M14.9568 23.6714H3.04321C1.36523 23.6714 0 22.3248 0 20.6699C0 15.7754 4.03748 11.7932 9 11.7932C13.9625 11.7932 18 15.7754 18 20.6699C18 22.3248 16.6348 23.6714 14.9568 23.6714ZM9 13.2727C4.86438 13.2727 1.5 16.5909 1.5 20.6699C1.5 21.5093 2.19214 22.1919 3.04321 22.1919H14.9568C15.8079 22.1919 16.5 21.5093 16.5 20.6699C16.5 16.5909 13.1356 13.2727 9 13.2727Z" fill="black"/>
</svg>
