<svg width="78" height="78" viewBox="0 0 78 78" fill="none" xmlns="http://www.w3.org/2000/svg">
<path d="M2 16C0.89543 16 0 16.8954 0 18C0 19.1046 0.89543 20 2 20C3.10457 20 4 19.1046 4 18C4 16.8954 3.10457 16 2 16Z" fill="#007BFF"/>
<path d="M66 1C65.4477 1 65 1.44772 65 2C65 2.55228 65.4477 3 66 3C66.5523 3 67 2.55228 67 2C67 1.44772 66.5523 1 66 1Z" fill="#4CD964"/>
<path d="M39 2C18.5655 2 2 18.5655 2 39C2 59.4345 18.5655 76 39 76C59.4345 76 76 59.4345 76 39C76 18.5655 59.4345 2 39 2Z" fill="#EAF0FF"/>
<path d="M72 0C69.7909 0 68 1.79086 68 4C68 6.20914 69.7909 8 72 8C74.2091 8 76 6.20914 76 4C76 1.79086 74.2091 0 72 0Z" fill="#4CD964"/>
<path d="M76 11C74.8954 11 74 11.8954 74 13C74 14.1046 74.8954 15 76 15C77.1046 15 78 14.1046 78 13C78 11.8954 77.1046 11 76 11Z" fill="#007BFF"/>
<path d="M70 63C68.8954 63 68 63.8954 68 65C68 66.1046 68.8954 67 70 67C71.1046 67 72 66.1046 72 65C72 63.8954 71.1046 63 70 63ZM4 48C1.79086 48 0 49.7909 0 52C0 54.2091 1.79086 56 4 56C6.20914 56 8 54.2091 8 52C8 49.7909 6.20914 48 4 48Z" fill="#4CD964"/>
<path d="M14 74C12.8954 74 12 74.8954 12 76C12 77.1046 12.8954 78 14 78C15.1046 78 16 77.1046 16 76C16 74.8954 15.1046 74 14 74Z" fill="#007BFF"/>
<path d="M7.5 40C6.11929 40 5 41.1193 5 42.5C5 43.8807 6.11929 45 7.5 45C8.88071 45 10 43.8807 10 42.5C10 41.1193 8.88071 40 7.5 40Z" fill="white"/>
<path d="M10 55C9.44772 55 9 55.4477 9 56C9 56.5523 9.44772 57 10 57C10.5523 57 11 56.5523 11 56C11 55.4477 10.5523 55 10 55Z" fill="#4CD964"/>
<path d="M69 22C68.4477 22 68 22.4477 68 23C68 23.5523 68.4477 24 69 24C69.5523 24 70 23.5523 70 23C70 22.4477 69.5523 22 69 22Z" fill="white"/>
<path d="M61.4002 33V53.4C61.4002 57.7 57.9002 61.2 53.6002 61.2H24.5002C20.2002 61.2 16.7002 57.7 16.7002 53.4V24.6C16.7002 20.3 20.2002 16.8 24.5002 16.8H53.6002C57.2002 16.8 60.2002 19.2 61.2002 22.6" fill="#007AFF"/>
<path d="M53.5 62H24.5C19.8 62 16 58.2 16 53.5V24.6C16 19.9 19.8 16.1 24.5 16.1H53.6C57.4 16.1 60.8 18.7 61.8 22.4C61.9 22.8 61.7 23.2 61.3 23.3C60.9 23.4 60.5 23.2 60.4 22.8C59.5 19.7 56.7 17.6 53.5 17.6H24.5C20.6 17.6 17.4 20.8 17.4 24.7V53.5C17.4 57.4 20.6 60.6 24.5 60.6H53.6C57.5 60.6 60.7 57.4 60.7 53.5V33C60.7 32.6 61 32.3 61.4 32.3C61.8 32.3 62.1 32.6 62.1 33V53.4C62.1 58.1 58.2 62 53.5 62Z" fill="#472B29"/>
<path d="M57.5 48.4C57.2 48.4 57 48.2 57 47.9V44C57 43.7 57.2 43.5 57.5 43.5C57.8 43.5 58 43.7 58 44V47.9C58 48.2 57.8 48.4 57.5 48.4ZM57.5 41.5C57.2 41.5 57 41.3 57 41V39C57 38.7 57.2 38.5 57.5 38.5C57.8 38.5 58 38.7 58 39V41C58 41.3 57.8 41.5 57.5 41.5Z" fill="#472B29"/>
<path d="M53 58H25C22.2 58 20 55.8 20 53V25C20 22.2 22.2 20 25 20H50.4C50.7 20 50.9 20.2 50.9 20.5C50.9 20.8 50.7 21 50.4 21H25C22.8 21 21 22.8 21 25V53C21 55.2 22.8 57 25 57H53C55.2 57 57 55.2 57 53V50.6C57 50.3 57.2 50.1 57.5 50.1C57.8 50.1 58 50.3 58 50.6V53C58 55.8 55.8 58 53 58Z" fill="#472B29"/>
<path d="M38.5 51.5H38.4C38.3 51.5 38.3 51.5 38.2 51.5C37.8 51.5 37.4 51.4 37.2 51.1L28.9 42.9C28.6 42.6 28.5 42.3 28.5 41.9C28.5 41.5 28.7 41.1 28.9 40.9C29.2 40.6 29.5 40.5 29.9 40.5C30.3 40.5 30.7 40.7 30.9 40.9L38 48.3L62 25C62.3 24.7 62.6 24.6 63 24.6C63.4 24.6 63.8 24.8 64 25C64.3 25.3 64.4 25.6 64.4 26C64.4 26.4 64.2 26.8 64 27L39.6 51.1C39.5 51.2 39.4 51.3 39.2 51.4C39.2 51.4 39.1 51.4 39.1 51.5C39 51.5 38.9 51.6 38.8 51.6C38.7 51.5 38.7 51.5 38.5 51.5Z" fill="white"/>
<path d="M63.2 25C63.5 25 63.7 25.1 63.9 25.3C64.3 25.7 64.3 26.3 63.9 26.7L39.3 50.7C39.2 50.8 39.1 50.8 39 50.9H38.9C38.8 50.9 38.8 50.9 38.7 50.9H38.6C38.5 50.9 38.5 50.9 38.5 50.9C38.4 50.9 38.4 50.9 38.3 50.9C38.1 50.9 37.8 50.8 37.6 50.6L29.3 42.4C28.9 42 28.9 41.4 29.3 41C29.5 40.8 29.7 40.7 30 40.7C30.3 40.7 30.5 40.8 30.7 41L38.2 48.8L62.6 25.2C62.7 25.1 62.9 25 63.2 25ZM63.2 24C62.7 24 62.2 24.2 61.8 24.6L38.2 47.5L31.4 40.4C31 40 30.5 39.8 30 39.8C29.5 39.8 29 40 28.6 40.4C28.2 40.8 28 41.3 28 41.8C28 42.3 28.2 42.8 28.6 43.2L36.9 51.4C37.3 51.8 37.7 52 38.3 52H38.4C38.5 52 38.5 52 38.6 52C38.7 52 38.9 52 38.9 52C39 52 39.1 52 39.2 51.9C39.3 51.9 39.4 51.8 39.4 51.8C39.6 51.7 39.8 51.6 39.9 51.4L64.5 27.4C64.9 27 65.1 26.5 65.1 26C65.1 25.5 64.9 25 64.5 24.6C64.2 24.2 63.7 24 63.2 24Z" fill="#007AFF"/>
</svg>
