<svg width="17" height="16" viewBox="0 0 17 16" fill="none" xmlns="http://www.w3.org/2000/svg">
<path d="M14.1712 3.71828L14.7397 5.37926C14.7873 5.51698 14.9227 5.60735 15.0702 5.60455L16.9218 5.60155L15.4192 6.62536C15.2984 6.70997 15.2484 6.85685 15.2948 6.99109L15.8705 8.64877L14.3739 7.61913C14.2527 7.53712 14.0898 7.53712 13.9671 7.62009L12.4717 8.64897L13.0463 6.99099C13.0929 6.85658 13.0434 6.70966 12.9208 6.62379L11.4205 5.60155L13.268 5.60452C13.4191 5.60813 13.5549 5.51708 13.6028 5.37872L14.1712 3.71828ZM15.2892 5.25143H15.2878H15.2904H15.2892ZM11.3143 2.47051L10.9207 3.60391L11.9435 2.90118C12.0749 2.81064 12.2521 2.81047 12.384 2.90132L13.4052 3.60296L13.0133 2.47116C12.9629 2.32427 13.0169 2.16556 13.1474 2.07557L14.173 1.37648L12.9087 1.37955C12.7451 1.37955 12.6019 1.28131 12.5516 1.13504L12.1637 0L11.7756 1.13476C11.7256 1.28117 11.5824 1.37952 11.4192 1.37952L10.1532 1.37645L11.1786 2.07465C11.3104 2.16552 11.3645 2.32431 11.3143 2.47051ZM0.919356 5.13645C0.853023 4.72132 0.853023 4.30211 0.919356 3.88701L1.49379 3.83404C1.57083 3.82695 1.63452 3.77442 1.65228 3.70345C1.74538 3.33141 1.90026 2.97993 2.11264 2.65875C2.15373 2.59664 2.14812 2.51677 2.09882 2.46025L1.73175 2.03943C1.99603 1.70151 2.31045 1.40515 2.66899 1.1561L3.1155 1.5021C3.17536 1.54849 3.25995 1.55381 3.32582 1.51529C3.66931 1.31444 4.0424 1.16841 4.43458 1.08125C4.50992 1.06451 4.56558 1.00444 4.57314 0.93187L4.62934 0.390481C5.06974 0.327963 5.51447 0.327929 5.95483 0.390481L6.01016 0.931632C6.01762 1.00438 6.07339 1.06454 6.14887 1.08128C6.53993 1.168 6.91334 1.31407 7.25879 1.51543C7.32469 1.55384 7.40911 1.54849 7.46893 1.50213L7.91532 1.15621C8.27361 1.40556 8.58774 1.70189 8.85174 2.03957L8.48546 2.46042C8.43637 2.51684 8.43077 2.59647 8.47157 2.65851C8.68511 2.98303 8.83969 3.33448 8.93098 3.70314C8.9486 3.77432 9.0124 3.82702 9.08962 3.83411L9.66507 3.88708C9.73137 4.30221 9.73137 4.72136 9.66507 5.13649L9.08962 5.18949C9.0124 5.19658 8.94863 5.24928 8.93098 5.32046C8.83969 5.68909 8.68511 6.04057 8.47157 6.36509C8.43077 6.4271 8.43634 6.50673 8.48546 6.56318L8.85174 6.98404C8.58774 7.32171 8.27361 7.61801 7.91532 7.8674L7.46893 7.5215C7.40911 7.47518 7.32469 7.46979 7.25879 7.50821C6.91265 7.70998 6.53931 7.85571 6.14927 7.9413C6.0736 7.9579 6.01762 8.01817 6.01016 8.09108L5.95479 8.63319C5.51436 8.69574 5.0697 8.69561 4.62934 8.63319L4.5731 8.09085C4.56554 8.0181 4.50966 7.95797 4.43414 7.94133C4.04294 7.8553 3.67 7.7096 3.32571 7.50835C3.25985 7.46986 3.17528 7.47514 3.11542 7.52154L2.66892 7.86753C2.31038 7.61849 1.99596 7.32212 1.73167 6.9842L2.09875 6.56339C2.14805 6.50687 2.15366 6.427 2.11257 6.36489C1.90022 6.04371 1.74535 5.69219 1.65221 5.32019C1.63445 5.24918 1.57076 5.19669 1.49372 5.18959L0.919356 5.13645ZM2.911 4.4344C2.911 5.71394 4.01599 6.75493 5.37421 6.75493C6.73242 6.75493 7.83633 5.71394 7.83633 4.4344C7.83633 3.15487 6.73184 2.11293 5.37421 2.11293C4.01657 2.11293 2.911 3.15432 2.911 4.4344ZM15.0272 10.0232C14.9853 9.91511 14.9189 9.8167 14.8314 9.73431C14.6725 9.58418 14.4602 9.50159 14.2335 9.50159C14.0067 9.50159 13.7944 9.58418 13.6357 9.73414L11.6055 11.6466C11.5692 11.7697 11.5111 11.8806 11.4359 11.9768C11.4506 11.9689 11.4659 11.9606 11.4816 11.9521L15.0272 10.0232ZM13.0549 9.79897C13.0289 9.76512 13.0001 9.73315 12.9685 9.70339C12.6386 9.39312 12.1015 9.39326 11.7714 9.70353L10.9921 10.4381C11.204 10.5242 11.3807 10.672 11.4989 10.8648C11.5547 10.9559 11.5946 11.0526 11.6186 11.152L13.0549 9.79897ZM3.27294 4.4344C3.27294 3.34242 4.21557 2.45401 5.37424 2.45401C6.53291 2.45401 7.47446 3.34242 7.47446 4.4344C7.47446 5.52639 6.5323 6.41384 5.37424 6.41384C4.21619 6.41384 3.27294 5.52588 3.27294 4.4344ZM4.15018 4.60805L4.84223 5.26125C4.87616 5.29326 4.92217 5.31126 4.97016 5.31129C5.01812 5.31129 5.06428 5.29336 5.09817 5.26138L6.4341 4.00329C6.50481 3.93672 6.50485 3.82872 6.43421 3.76212C6.36353 3.69547 6.24899 3.69541 6.17831 3.76201L4.97042 4.8995L4.40626 4.36701C4.33565 4.30033 4.22103 4.30027 4.15036 4.36684C4.07965 4.43342 4.07954 4.54141 4.15018 4.60805ZM5.20928 14.7922C5.25206 14.8621 5.26324 14.944 5.24082 15.0228C5.21839 15.1017 5.16519 15.1673 5.09093 15.2077L3.69962 15.9652C3.52967 16.0574 3.3468 15.9502 3.24169 15.8303L0.0422244 12.1819C-0.00454203 12.1284 -0.00410802 12.0641 0.00446401 12.0196C0.0222229 11.9273 0.0901119 11.837 0.17746 11.7896L2.29251 10.6388C2.3417 10.612 2.39646 10.5983 2.45219 10.5983C2.48048 10.5983 2.50905 10.6019 2.53723 10.609C2.62089 10.6301 2.69051 10.6803 2.73333 10.7502L5.20928 14.7922ZM2.22755 12.4978L1.78365 11.7731C1.73366 11.6915 1.62291 11.6635 1.53647 11.7106C1.44988 11.7577 1.42022 11.862 1.47021 11.9436L1.91411 12.6683C1.94764 12.723 2.00844 12.7536 2.07101 12.7536C2.10172 12.7536 2.13282 12.7462 2.16129 12.7307C2.24788 12.6836 2.27753 12.5793 2.22755 12.4978ZM16.887 10.325C16.7744 10.1416 16.5918 10.0101 16.373 9.95489C16.1541 9.8996 15.9264 9.92766 15.7318 10.0337L11.6623 12.2476C11.2367 12.4785 11.0662 12.534 10.7559 12.4571L10.3 12.3434L10.2984 12.343C10.2963 12.3425 10.2944 12.3415 10.2923 12.3409L7.42762 11.627C7.33102 11.603 7.2734 11.5096 7.29893 11.4185C7.32447 11.3275 7.42339 11.2732 7.52014 11.2973L10.4011 12.0152L10.4023 12.0156C10.7833 12.1048 11.1581 11.9019 11.2587 11.5493C11.3081 11.3756 11.2821 11.1931 11.1855 11.0355C11.0888 10.8778 10.9338 10.7652 10.749 10.7186L6.93186 9.75425C6.92864 9.75343 6.92546 9.75251 6.92227 9.75156C6.69951 9.6826 6.40404 9.71048 6.20378 9.81936L3.48662 11.2979L5.08258 13.9032L5.52669 13.6615C5.84155 13.4906 6.04713 13.5163 6.3482 13.5789C6.35084 13.5795 6.35348 13.5801 6.35605 13.5807L10.1618 14.5422C10.4557 14.6164 10.7637 14.5776 11.0291 14.4328L16.577 11.414C16.981 11.1944 17.1201 10.7059 16.887 10.325Z" fill="#F6F8FF"/>
</svg>
