<svg width="19" height="19" viewBox="0 0 19 19" fill="none" xmlns="http://www.w3.org/2000/svg">
<path d="M15.8384 4.41546L16.4739 6.38787C16.5271 6.55141 16.6784 6.65872 16.8432 6.6554L18.9126 6.65184L17.2333 7.86761C17.0983 7.96808 17.0424 8.14251 17.0942 8.30192L17.7376 10.2704L16.0649 9.04772C15.9295 8.95033 15.7474 8.95033 15.6103 9.04885L13.939 10.2707L14.5812 8.3018C14.6333 8.14219 14.5779 7.96772 14.4409 7.86575L12.7641 6.65184L14.829 6.65536C14.9979 6.65966 15.1496 6.55153 15.2032 6.38723L15.8384 4.41546ZM17.088 6.23607H17.0864H17.0893H17.088ZM12.6454 2.93373L12.2055 4.27965L13.3487 3.44515C13.4955 3.33764 13.6936 3.33744 13.841 3.44532L14.9823 4.27851L14.5443 2.9345C14.4879 2.76007 14.5483 2.5716 14.6942 2.46473L15.8405 1.63457L14.4274 1.63822C14.2445 1.63822 14.0845 1.52155 14.0283 1.34786L13.5947 0L13.161 1.34753C13.1051 1.52139 12.945 1.63818 12.7627 1.63818L11.3477 1.63453L12.4938 2.46364C12.6411 2.57156 12.7015 2.76011 12.6454 2.93373ZM1.02752 6.09954C0.95338 5.60657 0.95338 5.10875 1.02752 4.61583L1.66953 4.55293C1.75564 4.54451 1.82682 4.48213 1.84667 4.39785C1.95072 3.95605 2.12382 3.53866 2.36119 3.15726C2.40711 3.08351 2.40085 2.98866 2.34575 2.92155L1.93548 2.42183C2.23086 2.02055 2.58227 1.66862 2.98299 1.37287L3.48203 1.78374C3.54893 1.83884 3.64348 1.84515 3.7171 1.79941C4.101 1.5609 4.51798 1.38749 4.9563 1.28398C5.0405 1.2641 5.10271 1.19278 5.11116 1.1066L5.17398 0.463696C5.66618 0.389456 6.16324 0.389416 6.6554 0.463696L6.71725 1.10631C6.72558 1.1927 6.78791 1.26414 6.87228 1.28402C7.30934 1.387 7.72668 1.56046 8.11277 1.79957C8.18643 1.84519 8.28078 1.83884 8.34764 1.78378L8.84655 1.37299C9.24699 1.6691 9.59808 2.02099 9.89313 2.42199L9.48376 2.92175C9.4289 2.98874 9.42264 3.08331 9.46824 3.15698C9.7069 3.54235 9.87967 3.95969 9.9817 4.39748C10.0014 4.482 10.0727 4.54459 10.159 4.55301L10.8022 4.61591C10.8762 5.10887 10.8762 5.60661 10.8022 6.09958L10.159 6.16252C10.0727 6.17094 10.0014 6.23352 9.9817 6.31805C9.87967 6.7558 9.7069 7.17318 9.46824 7.55855C9.42264 7.63218 9.42886 7.72674 9.48376 7.79378L9.89313 8.29354C9.59808 8.69454 9.24699 9.04638 8.84655 9.34254L8.34764 8.93179C8.28078 8.87677 8.18643 8.87038 8.11277 8.916C7.72592 9.1556 7.30866 9.32865 6.87272 9.4303C6.78816 9.45001 6.72558 9.52158 6.71725 9.60816L6.65536 10.2519C6.16312 10.3262 5.66614 10.326 5.17398 10.2519L5.11112 9.60788C5.10267 9.5215 5.04022 9.45009 4.95581 9.43034C4.51858 9.32817 4.10177 9.15515 3.71697 8.91616C3.64336 8.87046 3.54885 8.87673 3.48195 8.93183L2.98291 9.3427C2.58219 9.04695 2.23078 8.69502 1.9354 8.29374L2.34567 7.79402C2.40077 7.7269 2.40703 7.63206 2.36111 7.55831C2.12378 7.17691 1.95068 6.75948 1.84659 6.31772C1.82674 6.2334 1.75556 6.17106 1.66945 6.16264L1.02752 6.09954ZM3.25347 5.26585C3.25347 6.7853 4.48847 8.02148 6.00647 8.02148C7.52448 8.02148 8.75827 6.7853 8.75827 5.26585C8.75827 3.74641 7.52384 2.5091 6.00647 2.5091C4.48912 2.5091 3.25347 3.74576 3.25347 5.26585ZM16.7951 11.9026C16.7483 11.7742 16.6741 11.6573 16.5763 11.5595C16.3987 11.3812 16.1615 11.2831 15.908 11.2831C15.6545 11.2831 15.4173 11.3812 15.2399 11.5593L12.9709 13.8304C12.9303 13.9765 12.8654 14.1083 12.7813 14.2224C12.7978 14.2131 12.8148 14.2033 12.8324 14.1931L16.7951 11.9026ZM14.5908 11.6363C14.5618 11.5961 14.5295 11.5581 14.4942 11.5228C14.1255 11.1543 13.5252 11.1545 13.1563 11.5229L12.2853 12.3952C12.5221 12.4975 12.7196 12.6731 12.8517 12.902C12.9141 13.0101 12.9587 13.125 12.9855 13.243L14.5908 11.6363ZM3.658 5.26585C3.658 3.96912 4.71153 2.91414 6.00652 2.91414C7.3015 2.91414 8.35382 3.96912 8.35382 5.26585C8.35382 6.56258 7.30082 7.61644 6.00652 7.61644C4.71222 7.61644 3.658 6.56198 3.658 5.26585ZM4.63844 5.47206L5.41192 6.24773C5.44984 6.28574 5.50125 6.30712 5.5549 6.30716C5.6085 6.30716 5.66008 6.28587 5.69796 6.2479L7.19106 4.75391C7.27009 4.67485 7.27013 4.54661 7.19118 4.46751C7.1122 4.38837 6.98417 4.38829 6.90518 4.46739L5.55518 5.81816L4.92465 5.18583C4.84574 5.10665 4.71763 5.10657 4.63864 5.18562C4.55962 5.26468 4.55949 5.39292 4.63844 5.47206ZM5.82214 17.5657C5.86996 17.6487 5.88245 17.746 5.85739 17.8396C5.83233 17.9332 5.77286 18.0111 5.68987 18.0591L4.13488 18.9587C3.94493 19.0682 3.74054 18.9409 3.62307 18.7985L0.047192 14.4661C-0.00507639 14.4025 -0.00459132 14.3261 0.0049892 14.2732C0.0248374 14.1637 0.100713 14.0565 0.198338 14.0001L2.56222 12.6335C2.6172 12.6018 2.6784 12.5855 2.74069 12.5855C2.7723 12.5855 2.80424 12.5897 2.83573 12.5982C2.92923 12.6233 3.00705 12.6828 3.05491 12.7659L5.82214 17.5657ZM2.48962 14.8411L1.99349 13.9805C1.93763 13.8836 1.81385 13.8504 1.71723 13.9063C1.62046 13.9623 1.58731 14.0861 1.64318 14.183L2.1393 15.0436C2.17678 15.1086 2.24473 15.1449 2.31466 15.1449C2.34898 15.1449 2.38375 15.1362 2.41556 15.1177C2.51234 15.0618 2.54548 14.938 2.48962 14.8411ZM18.8737 12.2609C18.7479 12.0432 18.5438 11.887 18.2992 11.8214C18.0546 11.7558 17.8001 11.7891 17.5826 11.9151L13.0344 14.544C12.5587 14.8182 12.3681 14.8842 12.0213 14.7928L11.5118 14.6578L11.51 14.6573C11.5076 14.6567 11.5056 14.6555 11.5032 14.6548L8.30147 13.8071C8.1935 13.7785 8.12911 13.6677 8.15765 13.5595C8.18618 13.4514 8.29674 13.3869 8.40488 13.4155L11.6248 14.2681L11.6261 14.2686C12.052 14.3745 12.4709 14.1335 12.5832 13.7148C12.6385 13.5085 12.6094 13.2918 12.5015 13.1046C12.3934 12.9173 12.2201 12.7837 12.0136 12.7283L7.74738 11.5832C7.74378 11.5822 7.74023 11.5811 7.73667 11.58C7.4877 11.4981 7.15747 11.5312 6.93364 11.6605L3.89682 13.4163L5.68054 16.51L6.1769 16.2231C6.5288 16.0201 6.75857 16.0506 7.09506 16.125C7.09801 16.1257 7.10096 16.1263 7.10383 16.1271L11.3573 17.2689C11.6858 17.3569 12.0301 17.3109 12.3266 17.1389L18.5272 13.5541C18.9788 13.2934 19.1342 12.7133 18.8737 12.2609Z" fill="black"/>
</svg>
