<svg width="20" height="21" viewBox="0 0 20 21" fill="none" xmlns="http://www.w3.org/2000/svg">
<path d="M9.36292 1.42564e-06C8.89585 0.00134001 8.44026 0.13861 8.0555 0.395509C7.67076 0.652419 7.37519 1.0186 7.20705 1.44141L6.64241 2.85352L4.82774 3.85547L3.2667 3.62402C3.26268 3.62302 3.25866 3.62204 3.25462 3.6211C2.79906 3.5611 2.33592 3.63574 1.92306 3.83204C1.51023 4.02832 1.166 4.3395 0.935701 4.72559C0.935699 4.72656 0.935699 4.72754 0.935701 4.72851L0.319738 5.76856C0.318723 5.77024 0.320748 5.77274 0.319738 5.77442L0.316719 5.77735C0.0824562 6.16771 -0.0271623 6.61863 0.00571777 7.06934C0.0388285 7.5232 0.214707 7.95569 0.506942 8.31152C0.507946 8.3125 0.508952 8.31348 0.509962 8.31445L1.49731 9.50391V11.502L0.534117 12.6914C0.243383 13.0467 0.0719479 13.4781 0.0389314 13.9307C0.0058227 14.3845 0.11529 14.8392 0.352952 15.2314L0.965895 16.2715C0.966897 16.2725 0.967902 16.2735 0.96891 16.2745C1.19922 16.6605 1.54057 16.9717 1.95324 17.168C2.36591 17.3641 2.83204 17.4391 3.28783 17.379C3.29186 17.378 3.29589 17.377 3.2999 17.376L4.85491 17.1475L6.6424 18.1436L7.20704 19.5615C7.37518 19.9842 7.67067 20.3475 8.0555 20.6045C8.44029 20.8614 8.89591 20.9986 9.36292 21C9.36392 21 9.36492 21 9.36593 21H10.6643C10.6653 21 10.6663 21 10.6673 21C11.1343 20.9986 11.5899 20.8614 11.9747 20.6045C12.3596 20.3475 12.655 19.9842 12.8232 19.5615L13.3908 18.1436L15.1753 17.1475L16.7333 17.376C16.7373 17.377 16.7414 17.378 16.7454 17.379C17.2012 17.4391 17.6643 17.3641 18.0769 17.168C18.4895 16.9717 18.834 16.6606 19.0643 16.2745C19.0643 16.2735 19.0643 16.2725 19.0643 16.2715L19.6803 15.2314V15.2256C19.9158 14.8346 20.0273 14.3828 19.9943 13.9307C19.9612 13.4769 19.7855 13.0444 19.4931 12.6885C19.4921 12.6875 19.491 12.6865 19.49 12.6856L18.5027 11.4961V9.49805L19.4629 8.31152L19.466 8.3086C19.7569 7.95326 19.9281 7.52182 19.9612 7.06934C19.9943 6.61526 19.8847 6.16066 19.6471 5.76856L19.0341 4.72852C19.0341 4.72754 19.0341 4.72657 19.0341 4.72559C18.8039 4.33943 18.4595 4.02832 18.0468 3.83203C17.6339 3.63577 17.1678 3.5611 16.7122 3.62109C16.7082 3.62204 16.7041 3.62301 16.7001 3.62402L15.1451 3.85254L13.3576 2.85645L12.793 1.44141C12.6248 1.01863 12.3293 0.652428 11.9445 0.395509C11.5598 0.138587 11.1042 0.00134001 10.6371 1.42564e-06C10.6361 -4.75213e-07 10.6351 -4.75213e-07 10.6341 1.42564e-06L9.36593 1.42564e-06C9.36493 -4.75213e-07 9.36392 -4.75213e-07 9.36292 1.42564e-06ZM9.36593 1.5H10.6341C10.7888 1.50101 10.9414 1.5467 11.0689 1.63184C11.1972 1.71752 11.2936 1.83945 11.3497 1.98047L12.017 3.64453C12.0804 3.80499 12.1988 3.93944 12.3521 4.02539L14.6077 5.28516C14.7593 5.36955 14.936 5.40157 15.1089 5.37598L16.9205 5.10938C17.0725 5.08936 17.2266 5.11127 17.3644 5.17676C17.502 5.24222 17.6168 5.34689 17.6935 5.47559L18.3095 6.52148C18.3115 6.52443 18.3135 6.52736 18.3155 6.53027C18.3949 6.66123 18.4322 6.81273 18.4212 6.96387C18.41 7.11532 18.3526 7.25835 18.2551 7.37695C18.2531 7.3789 18.2511 7.38085 18.2491 7.38282L17.1228 8.77734C17.0156 8.90925 16.9571 9.07225 16.9568 9.24023V11.7598C16.9568 11.9315 17.0176 12.098 17.1289 12.2314L18.2883 13.626C18.3843 13.744 18.4404 13.886 18.4514 14.0361C18.4624 14.1873 18.4251 14.3388 18.3457 14.4697C18.3447 14.4726 18.3436 14.4756 18.3426 14.4785L17.7236 15.5273C17.6469 15.6543 17.534 15.7583 17.3975 15.8232C17.2596 15.8888 17.1054 15.9106 16.9537 15.8906L15.1421 15.624C14.9683 15.5977 14.7904 15.6298 14.6379 15.7148L12.3823 16.9746C12.229 17.0606 12.1106 17.195 12.0472 17.3555L11.3829 19.0195C11.3819 19.0195 11.3809 19.0195 11.3799 19.0195C11.3238 19.1605 11.2273 19.2825 11.0991 19.3682C10.9716 19.4533 10.8191 19.499 10.6643 19.5H9.36895H9.36593C9.21212 19.499 9.06114 19.4523 8.93416 19.3682C8.80591 19.2825 8.70642 19.1605 8.65033 19.0195L7.98606 17.3555C7.92183 17.1946 7.8024 17.06 7.64788 16.9746L5.39237 15.7148C5.24069 15.6304 5.064 15.5984 4.89115 15.624L3.07949 15.8906C2.92778 15.9106 2.77351 15.8888 2.63564 15.8232C2.4978 15.7577 2.38333 15.6532 2.30652 15.5244L1.69056 14.4785C1.68856 14.4756 1.68655 14.4726 1.68451 14.4697C1.60526 14.3389 1.56779 14.1875 1.57884 14.0361C1.58988 13.8848 1.64744 13.7417 1.74491 13.623C1.74693 13.6211 1.74895 13.6191 1.75095 13.6172L2.87719 12.2227C2.9844 12.0908 3.04288 11.9278 3.04326 11.7598V9.24023C3.04322 9.06853 2.98247 8.90204 2.87115 8.76855L1.71471 7.37695L1.71169 7.37402C1.61573 7.25593 1.55959 7.11392 1.54864 6.96387C1.5376 6.81249 1.57507 6.66108 1.65432 6.53027C1.65535 6.52735 1.65635 6.52442 1.65734 6.52148L2.2733 5.47559L2.27632 5.47266C2.35312 5.34558 2.46604 5.2416 2.60242 5.17676C2.7401 5.1113 2.89435 5.08937 3.04628 5.10938L4.85793 5.37598C5.02946 5.40177 5.20495 5.37082 5.35614 5.28809L7.64486 4.02832C7.80104 3.94267 7.92166 3.807 7.98606 3.64453L8.65033 1.98047C8.70641 1.83947 8.80583 1.71752 8.93416 1.63184C9.06118 1.54771 9.21217 1.50101 9.36593 1.5ZM10 6.75C8.97527 6.75 7.99204 7.14554 7.26743 7.84863C6.54283 8.5517 6.13515 9.5057 6.13515 10.5C6.13515 11.2416 6.36271 11.9664 6.78735 12.583C7.212 13.1996 7.81435 13.682 8.5205 13.9658C9.22665 14.2496 10.0052 14.3214 10.7549 14.1768C11.5045 14.0321 12.1921 13.6758 12.7326 13.1514C13.2731 12.627 13.6403 11.9598 13.7894 11.2324C13.9385 10.5051 13.8645 9.74964 13.572 9.06445C13.2795 8.37927 12.7824 7.79484 12.1468 7.38281C11.5113 6.9708 10.7644 6.75 10 6.75ZM10 8.25C10.4587 8.25 10.9079 8.38067 11.2893 8.62793C11.6707 8.87519 11.9683 9.2275 12.1438 9.63867C12.3193 10.0499 12.3631 10.5029 12.2736 10.9395C12.1842 11.376 11.9639 11.7761 11.6396 12.0908C11.3152 12.4055 10.9028 12.6192 10.4529 12.7061C10.0031 12.7929 9.53611 12.7504 9.1123 12.5801C8.68852 12.4098 8.32545 12.121 8.0706 11.751C7.81577 11.3809 7.6811 10.9451 7.6811 10.5C7.6811 9.90301 7.92539 9.33132 8.36047 8.90918C8.79553 8.48703 9.38473 8.25 10 8.25Z" fill="white"/>
</svg>
