<svg width="17" height="17" viewBox="0 0 17 17" fill="none" xmlns="http://www.w3.org/2000/svg">
<path d="M4.68228 6.98696C5.25374 8.0229 5.91238 9.01712 6.76749 9.92374C7.62537 10.8359 8.69219 11.6661 10.0731 12.3752C10.1755 12.4253 10.2724 12.4253 10.3595 12.3905C10.491 12.3405 10.6252 12.2306 10.7566 12.0985C10.859 11.9956 10.9863 11.8315 11.1192 11.6522C11.6505 10.9499 12.3078 10.0781 13.2362 10.5147C13.257 10.5244 13.2722 10.5356 13.2929 10.5439L16.3896 12.3335C16.3993 12.3391 16.4104 12.3488 16.4187 12.3544C16.8269 12.6366 16.9957 13.0719 16.9998 13.5655C16.9998 14.0675 16.8158 14.632 16.546 15.109C16.189 15.7389 15.6632 16.156 15.0571 16.4314C14.4801 16.6983 13.8381 16.8416 13.221 16.9333C12.2524 17.0766 11.3447 16.9848 10.4163 16.6983C9.50856 16.4161 8.59395 15.9502 7.59493 15.3301L7.5216 15.2828C7.0636 14.995 6.56824 14.6877 6.08257 14.3247C4.30592 12.9759 2.49468 11.0278 1.3144 8.88363C0.325069 7.0843 -0.214567 5.14174 0.0801571 3.29096C0.243432 2.27588 0.676524 1.35258 1.43201 0.74353C2.09065 0.209571 2.97759 -0.082438 4.12604 0.0204604C4.25749 0.030194 4.3751 0.106673 4.43737 0.220695L6.42295 3.59409C6.71353 3.97232 6.7495 4.34776 6.59038 4.7232C6.45893 5.0305 6.19326 5.31417 5.83074 5.57837C5.72419 5.67014 5.5969 5.7633 5.46268 5.86064C5.01852 6.18463 4.51347 6.55868 4.68643 6.99809L4.68228 6.98696Z" fill="white"/>
</svg>
