<svg width="27" height="23" viewBox="0 0 27 23" fill="none" xmlns="http://www.w3.org/2000/svg">
<path d="M20.625 16.875V13.125C20.625 8.9907 17.2593 5.625 13.125 5.625C8.99069 5.625 5.625 8.9907 5.625 13.125V16.875C4.59375 16.875 3.75 17.7187 3.75 18.75V20.625C3.75 21.6562 4.59375 22.5 5.625 22.5H20.625C21.6562 22.5 22.5 21.6562 22.5 20.625V18.75C22.5 17.7187 21.6562 16.875 20.625 16.875ZM7.49999 13.125C7.49999 10.0218 10.0219 7.5 13.125 7.5C16.2281 7.5 18.75 10.0219 18.75 13.125V16.875H7.49999V13.125ZM5.625 20.625V18.75H20.625V20.625H5.625Z" fill="black"/>
<path d="M13.125 3.74999C13.6406 3.74999 14.0625 3.32814 14.0625 2.8125V0.937499C14.0625 0.421859 13.6406 0 13.125 0C12.6094 0 12.1875 0.421859 12.1875 0.937499V2.8125C12.1875 3.32814 12.6094 3.74999 13.125 3.74999Z" fill="black"/>
<path d="M2.8125 12.1875H0.937499C0.421859 12.1875 0 12.6094 0 13.125C0 13.6406 0.421859 14.0625 0.937499 14.0625H2.8125C3.32814 14.0625 3.74999 13.6406 3.74999 13.125C3.74999 12.6094 3.32814 12.1875 2.8125 12.1875Z" fill="black"/>
<path d="M25.3125 12.1875H23.4375C22.9219 12.1875 22.5 12.6094 22.5 13.125C22.5 13.6406 22.9219 14.0625 23.4375 14.0625H25.3125C25.8281 14.0625 26.25 13.6406 26.25 13.125C26.25 12.6094 25.8281 12.1875 25.3125 12.1875Z" fill="black"/>
<path d="M5.16576 6.49656C5.35326 6.68406 5.58762 6.76843 5.8314 6.76843C6.07518 6.76843 6.30954 6.67468 6.49704 6.49656C6.86268 6.13092 6.86268 5.54031 6.49704 5.1747L5.17518 3.85284C4.80954 3.4872 4.21893 3.4872 3.85332 3.85284C3.48771 4.21848 3.48768 4.80909 3.85332 5.1747L5.17518 6.49656H5.16576Z" fill="black"/>
<path d="M20.4187 6.76842C20.6625 6.76842 20.8969 6.67467 21.0844 6.49655L22.4062 5.17469C22.7719 4.80905 22.7719 4.21844 22.4062 3.85283C22.0406 3.48722 21.45 3.48719 21.0844 3.85283L19.7625 5.17469C19.3969 5.54033 19.3969 6.13094 19.7625 6.49655C19.95 6.68405 20.1844 6.76842 20.4281 6.76842H20.4187Z" fill="black"/>
<path d="M12.1875 9.375C10.6406 9.375 9.375 10.6406 9.375 12.1875C9.375 12.7031 9.79686 13.125 10.3125 13.125C10.8281 13.125 11.25 12.7031 11.25 12.1875C11.25 11.6719 11.6719 11.25 12.1875 11.25C12.7031 11.25 13.125 10.8281 13.125 10.3125C13.125 9.79686 12.7031 9.375 12.1875 9.375Z" fill="black"/>
</svg>
